<svg id="Layer_1" data-name="Layer 1" xmlns="http://www.w3.org/2000/svg" xmlns:xlink="http://www.w3.org/1999/xlink" viewBox="0 0 313 60"><defs><style>.cls-1,.cls-10{fill:none;}.cls-2{clip-path:url(#clip-path);}.cls-3{fill:url(#linear-gradient);}.cls-4{fill:red;}.cls-5{fill:#fff;}.cls-6{fill:#c8c8c8;}.cls-7{fill:#f79f1a;}.cls-8{fill:#ea001b;}.cls-9{fill:#ff5f01;}.cls-10{stroke:#a5a5a5;stroke-miterlimit:10;}</style><clipPath id="clip-path"><path class="cls-1" d="M245.48,26.26c0,2.9,2.58,4.51,4.55,5.47s2.71,1.62,2.7,2.5c0,1.35-1.62,1.94-3.11,2a10.87,10.87,0,0,1-5.34-1.27l-.94,4.41a15.66,15.66,0,0,0,5.78,1.07c5.46,0,9-2.7,9.06-6.88,0-5.31-7.34-5.6-7.29-8,0-.72.7-1.49,2.21-1.68a9.79,9.79,0,0,1,5.13.9l.91-4.26a13.94,13.94,0,0,0-4.87-.89c-5.14,0-8.76,2.73-8.79,6.65m22.44-6.37a2.37,2.37,0,0,0-2.21,1.47L257.91,40h5.46l1.09-3h6.67l.63,3h4.8l-4.18-20H268m.69,5.45L270.26,33h-4.31l2.74-7.55M238.87,20l-4.28,20h5.17L244,20h-5m-7.87,0-5.39,13.61L223.57,22a2.41,2.41,0,0,0-2.39-2h-8.8l-.12.58a21.54,21.54,0,0,1,5.1,1.7A2.19,2.19,0,0,1,218.59,24l4.13,16h5.47l8.38-20H231"/></clipPath><linearGradient id="linear-gradient" x1="-3817.83" y1="3975.44" x2="-3817.7" y2="3975.44" gradientTransform="matrix(419.71, -154.57, -154.57, -419.71, 2217073.1, 1078443.31)" gradientUnits="userSpaceOnUse"><stop offset="0" stop-color="#222357"/><stop offset="1" stop-color="#254aa5"/></linearGradient></defs><title>SVG_</title><g id="layer1"><g id="g10267"><g class="cls-2"><g id="g10269"><g id="g10275"><path id="path10283" class="cls-3" d="M205.45,22.1,268.88-1.26,283.3,37.92,219.88,61.28"/></g></g></g></g></g><rect class="cls-4" x="26" y="15" width="93" height="30"/><path class="cls-5" d="M32.17,27.28l1.89-.66v.92a2.47,2.47,0,0,1,2.07-1,3.06,3.06,0,0,1,3,3.32,3,3,0,0,1-3,3.3,2.59,2.59,0,0,1-2.07-1l0,2.9H32.17Zm5,2.47a1.57,1.57,0,1,0-3.11,0,1.57,1.57,0,1,0,3.11,0Z"/><path class="cls-5" d="M46.72,26.45H48.6v1.09c.39-.92,1-1.15,2.16-1.1v1.63h-.1c-1.27,0-2.05,1-2.05,2.59v2.26H46.72Z"/><path class="cls-5" d="M52.11,31.16V28.07H51.3V26.45h.81v-1L54,24.79v1.66h1.62v1.62H54v2.73c0,.42.16.62.53.62a1.57,1.57,0,0,0,.81-.23v1.49a2.62,2.62,0,0,1-1.41.36C52.84,33,52.11,32.61,52.11,31.16Z"/><path class="cls-5" d="M56.15,26.45H58v.92a2.23,2.23,0,0,1,1.85-1,1.87,1.87,0,0,1,1.77,1,2.56,2.56,0,0,1,2.06-1c1.33,0,2.12.82,2.12,2.38v4.21H64.23V29.36c0-.86-.38-1.3-1.06-1.3s-1.1.44-1.1,1.3v3.56H60.19V29.36c0-.86-.38-1.3-1.06-1.3s-1.1.44-1.1,1.3v3.56H56.15Z"/><path class="cls-5" d="M73.93,26.45h1.89v.92a2.25,2.25,0,0,1,1.87-1,2.11,2.11,0,0,1,2.17,2.4v4.19H78V29.36c0-.86-.39-1.3-1.06-1.3s-1.09.44-1.09,1.3v3.56H73.93Z"/><path class="cls-5" d="M80.46,29.87a3.18,3.18,0,0,1,3.15-3.32c2.13,0,3.11,1.65,3.11,3.46,0,.14,0,.31,0,.48H82.26a1.48,1.48,0,0,0,1.56,1.25,2.09,2.09,0,0,0,1.55-.65l.52,1.43a3.28,3.28,0,0,1-2.09.68A3.2,3.2,0,0,1,80.46,29.87Zm4.5-.73a1.37,1.37,0,0,0-1.35-1.36,1.42,1.42,0,0,0-1.38,1.36Z"/><path class="cls-6" d="M89.5,29.77a3.28,3.28,0,0,1,3.35-3.32,3.15,3.15,0,0,1,2,.65c-.14.36-.56,1.54-.56,1.54A2,2,0,0,0,92.84,28a1.77,1.77,0,0,0,.07,3.52,2,2,0,0,0,1.46-.68l.56,1.55a3.16,3.16,0,0,1-2.11.69A3.26,3.26,0,0,1,89.5,29.77Z"/><path class="cls-6" d="M102.75,26.45h1.89v.92a2.23,2.23,0,0,1,1.85-1,1.87,1.87,0,0,1,1.77,1,2.56,2.56,0,0,1,2.06-1c1.33,0,2.12.82,2.12,2.38v4.21h-1.62V29.36c0-.86-.38-1.3-1.06-1.3s-1.1.44-1.1,1.3v3.56h-1.89V29.36c0-.86-.38-1.3-1.06-1.3s-1.1.44-1.1,1.3v3.56h-1.89Z"/><ellipse class="cls-6" cx="88.11" cy="32.08" rx="0.95" ry="1.01"/><path class="cls-5" d="M42.76,33.12a3.36,3.36,0,1,1,3.36-3.36A3.37,3.37,0,0,1,42.76,33.12Zm0-5a1.6,1.6,0,1,0,1.6,1.6A1.6,1.6,0,0,0,42.76,28.15Z"/><path class="cls-5" d="M70,33.12a3.36,3.36,0,1,1,3.36-3.36A3.37,3.37,0,0,1,70,33.12Zm0-5a1.6,1.6,0,1,0,1.6,1.6A1.6,1.6,0,0,0,70,28.15Z"/><path class="cls-6" d="M98.64,33.12A3.36,3.36,0,1,1,102,29.75,3.37,3.37,0,0,1,98.64,33.12Zm0-5a1.6,1.6,0,1,0,1.6,1.6A1.6,1.6,0,0,0,98.64,28.15Z"/><g id="_Group_" data-name="&lt;Group&gt;"><path id="path2997" class="cls-7" d="M194.35,26.68a14,14,0,1,1-14-14,14,14,0,0,1,14,14Z"/><path id="path2995" class="cls-8" d="M177.12,26.68a14,14,0,1,1-14-14,14,14,0,0,1,14,14Z"/><path id="path2999" class="cls-9" d="M171.78,15.67a14,14,0,0,0,0,22,14,14,0,0,0,0-22Z"/><g id="text3045"><path id="path3057" class="cls-7" d="M194.35,34.07v-.54h-.13l-.14.37-.14-.37h-.13v.54h0v-.35l.18.62h.1v-.27Zm-.81,0v-.54h0v.54Z"/></g><path id="path3006" d="M152.32,47.81h-.81v-4h.81v.46a2.57,2.57,0,0,1,1.1-.56,1.73,1.73,0,0,1,1.28.7,1.48,1.48,0,0,1,1.26-.7,1.46,1.46,0,0,1,1.48,1.19v2.67h-.81v-2.3s0-.7-.88-.7-1,.7-1,.7v2.3h-.81V45.26c.09,0,0-.73-.7-.73-.93,0-.95.75-.92.75Z"/><path id="path3008" d="M176.3,43.8a2.51,2.51,0,0,0-1.08.54v-.57h-.81v3.77h.81l0-2.31s0-.74.95-.74a.78.78,0,0,1,.41.11v0l.26-.71A1.41,1.41,0,0,0,176.3,43.8Z"/><path id="path3013" d="M187.62,43.8a2.51,2.51,0,0,0-1.08.54v-.57h-.81v3.77h.81l0-2.31s0-.74.95-.74a.78.78,0,0,1,.41.11v0l.26-.71a1.41,1.41,0,0,0-.53-.11Z"/><path id="path3015" d="M159.9,43.78a1.89,1.89,0,0,0-1.82,2,1.94,1.94,0,0,0,1.85,2,2.39,2.39,0,0,0,1.28-.49v.33H162V43.77h-1.08v.58c.19,0-.32-.57-1-.57Zm.15.75a1.24,1.24,0,1,1-1.15,1.24A1.2,1.2,0,0,1,160.05,44.53Z"/><path id="path3020" d="M182.64,43.78a1.89,1.89,0,0,0-1.82,2,1.94,1.94,0,0,0,1.85,2,3.3,3.3,0,0,0,1.44-.49v.33h.54V43.77h-.81v.58a1.61,1.61,0,0,0-1.2-.57Zm.15.75a1.24,1.24,0,1,1-1.15,1.24A1.2,1.2,0,0,1,182.8,44.53Z"/><path id="path3022" d="M190.13,43.78a1.89,1.89,0,0,0-1.82,2,1.94,1.94,0,0,0,1.85,2,2.12,2.12,0,0,0,1.22-.49v.33h.81V42.42h-1.08v1.93c.25,0-.26-.57-1-.57Zm.15.75a1.24,1.24,0,1,1-1.15,1.24A1.2,1.2,0,0,1,190.28,44.53Z"/><path id="path3024" d="M164.3,47.71a3.21,3.21,0,0,1-1.55-.5l.34-.53a3.68,3.68,0,0,0,1.21.33c.33,0,.88-.11.89-.43s-.92-.45-.92-.45-1.39,0-1.39-1.17c0-.72.69-1.18,1.58-1.18a5,5,0,0,1,1.48.45l-.39.61a4.84,4.84,0,0,0-1.13-.31c-.33,0-.73.15-.73.43,0,.78,2.31-.06,2.31,1.52,0,1-.94,1.23-1.69,1.23Z"/><path id="path3026" d="M167.41,42.69v1.08h-.81v.81h.81v1.86a1.17,1.17,0,0,0,1.22,1.26,4.08,4.08,0,0,0,1-.28l-.3-.81a1,1,0,0,1-.58.24c-.59,0-.57-.42-.57-.42V44.58h1.35v-.81h-1.35V42.69Z"/><path id="path3034" d="M172,43.72a2,2,0,0,0,.08,3.94,3.57,3.57,0,0,0,1.44-.53l-.36-.63a2.29,2.29,0,0,1-1.08.41,1.05,1.05,0,0,1-1.08-1h2.7S173.88,43.72,172,43.72Zm-.12.77H172a.89.89,0,0,1,.94.9H171A.86.86,0,0,1,171.86,44.49Z"/><path id="path3037" d="M180,46.6l.36.72a2.54,2.54,0,0,1-1.22.37,2,2,0,0,1-2.08-2,1.86,1.86,0,0,1,2-1.93,2.75,2.75,0,0,1,1.35.42L180,45a1.12,1.12,0,0,0-1-.38A1.22,1.22,0,0,0,179,47a1.66,1.66,0,0,0,1-.4Z"/><g id="text3066"><path id="path3078" d="M193.79,47.08a.38.38,0,0,0-.27.11.37.37,0,0,0,0,.53.39.39,0,0,0,.54,0,.37.37,0,0,0,0-.53A.38.38,0,0,0,193.79,47.08Zm0,.66a.29.29,0,1,1,0-.58.29.29,0,0,1,.2.08.29.29,0,0,1,0,.41A.29.29,0,0,1,193.79,47.74Zm0-.47h0v.27h0v.27h-.06l.1-.27h.09l-.11-.05a.14.14,0,0,0,.08,0,.1.1,0,0,0,0-.07.1.1,0,0,0,0-.08A.19.19,0,0,0,193.81,47.27Zm0,0c0,.07,0,.07,0,.08a0,0,0,0,1,0,0,0,0,0,0,1,0,0s0,0,0-.15h0Z"/></g></g><rect class="cls-10" x="0.5" y="0.5" width="312" height="59"/></svg>