<?xml version="1.0" encoding="iso-8859-1"?>
<!-- Generator: Adobe Illustrator 19.0.0, SVG Export Plug-In . SVG Version: 6.00 Build 0)  -->
<svg version="1.1" id="Capa_1" xmlns="http://www.w3.org/2000/svg" xmlns:xlink="http://www.w3.org/1999/xlink" x="0px" y="0px"
	 viewBox="0 0 496 496" style="enable-background:new 0 0 496 496;" xml:space="preserve">
<g>
	<g>
		<g>
			<path d="M115.608,112.184l-11.864-10.728C97.68,108.16,89.024,112,80,112c-17.648,0-32-14.352-32-32s14.352-32,32-32
				s32,14.352,32,32c0,4.656-0.976,9.144-2.896,13.336l14.536,6.672C126.536,93.712,128,86.976,128,80c0-26.472-21.528-48-48-48
				S32,53.528,32,80s21.528,48,48,48C93.536,128,106.52,122.232,115.608,112.184z"/>
			<path d="M32,416c0,26.472,21.528,48,48,48s48-21.528,48-48s-21.528-48-48-48S32,389.528,32,416z M112,416
				c0,17.648-14.352,32-32,32s-32-14.352-32-32s14.352-32,32-32S112,398.352,112,416z"/>
			<path d="M160,80c0-44.112-35.888-80-80-80S0,35.888,0,80c0,25.288,11.888,48.896,32,63.992v208.016
				C11.888,367.104,0,390.712,0,416c0,44.112,35.888,80,80,80s80-35.888,80-80c0-25.288-11.888-48.896-32-63.992V143.992
				C148.112,128.896,160,105.288,160,80z M115.552,362.792C133.36,374.712,144,394.6,144,416c0,35.288-28.712,64-64,64
				s-64-28.712-64-64c0-21.4,10.64-41.288,28.448-53.208L48,360.416V135.584l-3.552-2.376C26.64,121.288,16,101.4,16,80
				c0-35.288,28.712-64,64-64s64,28.712,64,64c0,21.4-10.64,41.288-28.448,53.208L112,135.584v224.832L115.552,362.792z"/>
			<path d="M464,352.008V143.992c20.112-15.096,32-38.704,32-63.992c0-44.112-35.888-80-80-80s-80,35.888-80,80
				c0,25.288,11.888,48.896,32,63.992v208.016c-20.112,15.096-32,38.704-32,63.992c0,44.112,35.888,80,80,80s80-35.888,80-80
				C496,390.712,484.112,367.104,464,352.008z M416,480c-35.288,0-64-28.712-64-64c0-21.4,10.64-41.288,28.448-53.208l3.552-2.376
				V135.584l-3.552-2.376C362.64,121.288,352,101.4,352,80c0-35.288,28.712-64,64-64c35.288,0,64,28.712,64,64
				c0,21.4-10.64,41.288-28.448,53.208L448,135.584v224.832l3.552,2.376C469.36,374.712,480,394.6,480,416
				C480,451.288,451.288,480,416,480z"/>
			<rect x="72" y="144" width="16" height="16"/>
			<rect x="72" y="192" width="16" height="16"/>
			<rect x="72" y="240" width="16" height="16"/>
			<rect x="72" y="288" width="16" height="16"/>
			<rect x="72" y="336" width="16" height="16"/>
			<path d="M280,160c0-17.648-14.352-32-32-32s-32,14.352-32,32s14.352,32,32,32S280,177.648,280,160z M248,176
				c-8.824,0-16-7.176-16-16c0-8.824,7.176-16,16-16c8.824,0,16,7.176,16,16C264,168.824,256.824,176,248,176z"/>
			<path d="M216,432c0,17.648,14.352,32,32,32s32-14.352,32-32s-14.352-32-32-32S216,414.352,216,432z M264,432
				c0,8.824-7.176,16-16,16c-8.824,0-16-7.176-16-16c0-8.824,7.176-16,16-16C256.824,416,264,423.176,264,432z"/>
			<path d="M312,160c0-35.288-28.712-64-64-64c-35.288,0-64,28.712-64,64c0,22.8,12.408,44,32,55.36v161.28
				C196.408,388,184,409.2,184,432c0,35.288,28.712,64,64,64c35.288,0,64-28.712,64-64c0-22.8-12.408-44-32-55.36V215.36
				C299.592,204,312,182.8,312,160z M268.56,388.688C285.232,396.616,296,413.616,296,432c0,26.472-21.528,48-48,48
				s-48-21.528-48-48c0-18.384,10.768-35.384,27.44-43.312l4.56-2.176V205.488l-4.56-2.168C210.768,195.384,200,178.384,200,160
				c0-26.472,21.528-48,48-48s48,21.528,48,48c0,18.384-10.768,35.384-27.44,43.312l-4.56,2.176V386.52L268.56,388.688z"/>
			<path d="M439.096,120l23.096-40l-23.096-40h-46.184l-23.096,40l23.096,40H439.096z M402.144,56h27.712l13.856,24l-13.856,24
				h-27.712l-13.856-24L402.144,56z"/>
			<path d="M392.904,376l-23.096,40l23.096,40h46.184l23.096-40l-23.096-40H392.904z M429.856,440h-27.712l-13.856-24l13.856-24
				h27.712l13.856,24L429.856,440z"/>
			<rect x="408" y="344" width="16" height="16"/>
			<rect x="408" y="136" width="16" height="16"/>
			<rect x="408" y="168" width="16" height="160"/>
		</g>
	</g>
</g>
<g>
</g>
<g>
</g>
<g>
</g>
<g>
</g>
<g>
</g>
<g>
</g>
<g>
</g>
<g>
</g>
<g>
</g>
<g>
</g>
<g>
</g>
<g>
</g>
<g>
</g>
<g>
</g>
<g>
</g>
</svg>
