<?xml version="1.0" ?><svg viewBox="0 0 512 512" xmlns="http://www.w3.org/2000/svg"><title/><g data-name="1" id="_1"><path d="M441.13,448h-372a15,15,0,0,1-15-15V323.78a15,15,0,0,1,15-15h372a15,15,0,0,1,15,15V433A15,15,0,0,1,441.13,448Zm-357-30h342V338.78h-342Z"/><path d="M409.91,338.78H100.36a15,15,0,0,1-15-15V212a44,44,0,0,1,44-44H380.94a44,44,0,0,1,44,44V323.78A15,15,0,0,1,409.91,338.78Zm-294.55-30H394.91V212a14,14,0,0,0-14-14H129.32a14,14,0,0,0-14,14Z"/><path d="M410.15,132.47H250a15,15,0,0,1-15-15V61a15,15,0,0,1,15-15H410.15a15,15,0,0,1,15,15v56.48A15,15,0,0,1,410.15,132.47ZM265,102.47H395.15V76H265Z"/><path d="M327.63,198a15,15,0,0,1-15-15V117.47a15,15,0,0,1,30,0V183A15,15,0,0,1,327.63,198Z"/><path d="M184.14,247.15H152.58a15,15,0,0,1,0-30h31.56a15,15,0,0,1,0,30Z"/><path d="M184.14,289.63H152.58a15,15,0,0,1,0-30h31.56a15,15,0,0,1,0,30Z"/><path d="M357.68,247.15H326.13a15,15,0,0,1,0-30h31.55a15,15,0,0,1,0,30Z"/><path d="M357.68,289.63H326.13a15,15,0,0,1,0-30h31.55a15,15,0,0,1,0,30Z"/><path d="M270.91,247.15H239.36a15,15,0,0,1,0-30h31.55a15,15,0,0,1,0,30Z"/><path d="M270.91,289.63H239.36a15,15,0,0,1,0-30h31.55a15,15,0,0,1,0,30Z"/><path d="M255.13,393.38a14.46,14.46,0,0,1-1.47-.07,14.28,14.28,0,0,1-1.46-.22c-.47-.1-.95-.22-1.42-.36a16.57,16.57,0,0,1-2.71-1.12,16.64,16.64,0,0,1-2.45-1.63c-.38-.31-.75-.65-1.09-1a14.67,14.67,0,0,1-1-1.1,12.91,12.91,0,0,1-.88-1.18q-.41-.61-.75-1.26c-.23-.43-.44-.88-.63-1.33s-.35-.91-.49-1.38a14.24,14.24,0,0,1-.36-1.43,14.51,14.51,0,0,1-.22-1.45,14.68,14.68,0,0,1-.08-1.48,14.48,14.48,0,0,1,.08-1.47,14.28,14.28,0,0,1,.22-1.46,13.41,13.41,0,0,1,.36-1.42c.14-.47.31-.93.49-1.38s.4-.9.63-1.33a14.43,14.43,0,0,1,.75-1.26,14.61,14.61,0,0,1,.88-1.19,15.33,15.33,0,0,1,2.08-2.08,14.61,14.61,0,0,1,1.19-.88,14.43,14.43,0,0,1,1.26-.75c.43-.23.88-.44,1.33-.63s.91-.35,1.38-.49a12.31,12.31,0,0,1,1.42-.36,14.28,14.28,0,0,1,1.46-.22,14.68,14.68,0,0,1,4.4.22,12,12,0,0,1,1.43.36c.47.14.93.31,1.38.49s.9.4,1.33.63.85.48,1.26.75a14.61,14.61,0,0,1,1.19.88,15.33,15.33,0,0,1,2.08,2.08c.31.38.6.78.88,1.19s.52.83.75,1.26a12.39,12.39,0,0,1,.62,1.33,13.35,13.35,0,0,1,.5,1.38c.14.46.26.94.36,1.42a14.28,14.28,0,0,1,.22,1.46,14.46,14.46,0,0,1,.07,1.47,14.66,14.66,0,0,1-.07,1.48,14.51,14.51,0,0,1-.22,1.45c-.1.48-.22,1-.36,1.43a16.57,16.57,0,0,1-1.12,2.71c-.23.43-.49.85-.75,1.26s-.57.81-.88,1.18a14.67,14.67,0,0,1-1,1.1c-.34.34-.71.68-1.09,1a14.5,14.5,0,0,1-1.19.87c-.41.27-.83.53-1.26.76a16.57,16.57,0,0,1-2.71,1.12c-.47.14-.95.26-1.43.36a14.51,14.51,0,0,1-1.45.22A14.66,14.66,0,0,1,255.13,393.38Z"/></g></svg>