<svg id="icons" enable-background="new 0 0 64 64" height="512" viewBox="0 0 64 64" width="512" xmlns="http://www.w3.org/2000/svg"><g><g><g><g><path d="m34.067 30.051c-.769 0-1.536-.292-2.121-.877-.391-.391-.391-1.023 0-1.414s1.023-.391 1.414 0c.388.388 1.023.391 1.415-.001.39-.39.389-1.023-.001-1.414-.391-.391-.391-1.023 0-1.414s1.023-.391 1.414 0c.566.566.879 1.319.88 2.121 0 .801-.313 1.555-.879 2.121-.585.585-1.353.878-2.122.878z"/></g><g><path d="m32.655 29.465c-.256 0-.512-.098-.707-.293l-6.143-6.142c-.391-.391-.391-1.023 0-1.414s1.023-.391 1.414 0l6.143 6.142c.391.391.391 1.023 0 1.414-.195.195-.451.293-.707.293z"/></g><g><path d="m35.481 26.638c-.256 0-.512-.098-.707-.293l-6.142-6.142c-.391-.391-.391-1.023 0-1.414s1.023-.391 1.414 0l6.142 6.142c.391.391.391 1.023 0 1.414-.195.195-.451.293-.707.293z"/></g><g><path d="m27.926 21.91c-.256 0-.512-.098-.707-.293l-6.975-6.978c-.391-.391-.391-1.023 0-1.414s1.023-.391 1.414 0l6.975 6.978c.391.391.391 1.023 0 1.414-.195.196-.451.293-.707.293z"/></g><g><path d="m20.951 14.933c-.552 0-1-.447-1-1l-.001-2.826c0-.552.447-1 1-1 .552 0 1 .447 1 1l.001 2.826c0 .551-.447 1-1 1z"/></g><g><path d="m18.123 14.935c-.552 0-1-.447-1-.999 0-.553.447-1.001.999-1.001l2.828-.002h.001c.552 0 1 .447 1 .999 0 .553-.447 1.001-.999 1.001z"/></g><g><path d="m18.123 14.935c-.388 0-.757-.227-.919-.605l-2.123-4.951c-.218-.508.018-1.096.524-1.313.506-.22 1.096.017 1.313.524l2.123 4.951c.218.508-.018 1.096-.524 1.313-.128.055-.262.081-.394.081z"/></g><g><path d="m20.95 12.106c-.132 0-.266-.025-.395-.081l-4.95-2.123c-.507-.218-.742-.806-.524-1.313.217-.508.805-.743 1.313-.524l4.95 2.123c.507.218.742.806.524 1.313-.161.379-.53.605-.918.605z"/></g></g><g><g><path d="m34.063 17.945c-1.603 0-3.109-.624-4.243-1.758-2.338-2.339-2.338-6.146 0-8.486 1.133-1.13 2.637-1.751 4.236-1.751.754 0 1.492.139 2.192.412.314.123.546.396.615.727s-.032.674-.271.912l-2.529 2.529c-.39.391-.391 1.025 0 1.415.375.377 1.038.377 1.415 0l2.529-2.529c.239-.238.581-.342.912-.271.33.069.604.3.727.614.868 2.223.342 4.746-1.341 6.429-1.134 1.133-2.64 1.757-4.242 1.757zm-.256-9.987c-.973.059-1.879.465-2.574 1.158-1.558 1.56-1.558 4.098.001 5.657 1.512 1.512 4.146 1.512 5.657 0 .7-.7 1.1-1.62 1.16-2.573l-1.159 1.159c-1.132 1.132-3.108 1.133-4.244.001-1.169-1.172-1.169-3.075.001-4.244z"/></g><g><path d="m18.97 30.036c-.769 0-1.536-.292-2.122-.876-1.169-1.17-1.169-3.072-.001-4.243.391-.391 1.024-.39 1.415-.001.391.391.391 1.023.001 1.415-.391.39-.391 1.024-.001 1.414.391.389 1.024.39 1.415 0 .391-.391 1.023-.391 1.414 0s.391 1.023 0 1.414c-.585.585-1.353.877-2.121.877z"/></g><g><path d="m20.384 29.452c-.256 0-.512-.098-.707-.293-.391-.391-.391-1.023 0-1.414l11.852-11.852c.391-.391 1.023-.391 1.414 0s.391 1.023 0 1.414l-11.852 11.852c-.195.195-.451.293-.707.293z"/></g><g><path d="m17.555 26.624c-.256 0-.512-.098-.707-.293-.391-.391-.391-1.023 0-1.414l11.852-11.852c.391-.391 1.023-.391 1.414 0s.391 1.023 0 1.414l-11.852 11.852c-.196.195-.451.293-.707.293z"/></g></g></g><g><path d="m8.996 58.998c-.553 0-1-.447-1-1v-53.001c0-.553.447-1 1-1s1 .447 1 1v53.001c0 .553-.447 1-1 1z"/></g><g><path d="m45.006 58.998c-.553 0-1-.447-1-1v-53.001c0-.553.447-1 1-1s1 .447 1 1v53.001c0 .553-.447 1-1 1z"/></g><g><path d="m39.005 46.025h-.999c-.553 0-1-.447-1-1s.447-1 1-1h.999c.553 0 1 .447 1 1s-.447 1-1 1z"/></g><g><path d="m39.006 48.024c-.367 0-.721-.202-.896-.553l-.999-1.999c-.247-.494-.047-1.095.447-1.342.493-.246 1.096-.048 1.342.447l.999 1.999c.247.494.047 1.095-.447 1.342-.143.072-.296.106-.446.106z"/></g><g><path d="m39.005 48.024h-.999c-.553 0-1-.447-1-1s.447-1 1-1h.999c.553 0 1 .447 1 1s-.447 1-1 1z"/></g><g><path d="m35.006 47.024h-2.998c-.553 0-1-.447-1-1s.447-1 1-1h2.998c.553 0 1 .447 1 1s-.447 1-1 1z"/></g><g><path d="m21.999 47.024h-7.002c-.553 0-1-.447-1-1s.447-1 1-1h7.002c.553 0 1 .447 1 1s-.447 1-1 1z"/></g><g><path d="m39.005 40.003h-.999c-.553 0-1-.447-1-1s.447-1 1-1h.999c.553 0 1 .447 1 1s-.447 1-1 1z"/></g><g><path d="m39.006 42.002c-.367 0-.721-.202-.896-.553l-.999-1.999c-.247-.494-.047-1.095.447-1.342.493-.246 1.096-.047 1.342.447l.999 1.999c.247.494.047 1.095-.447 1.342-.143.072-.296.106-.446.106z"/></g><g><path d="m39.005 42.002h-.999c-.553 0-1-.447-1-1s.447-1 1-1h.999c.553 0 1 .447 1 1s-.447 1-1 1z"/></g><g><path d="m35.006 41.002h-2.998c-.553 0-1-.447-1-1s.447-1 1-1h2.998c.553 0 1 .447 1 1s-.447 1-1 1z"/></g><g><path d="m25.002 41.002h-10.005c-.553 0-1-.447-1-1s.447-1 1-1h10.005c.553 0 1 .447 1 1s-.447 1-1 1z"/></g><g><path d="m39 34.998h-24.003c-.553 0-1-.447-1-1s.447-1 1-1h24.003c.553 0 1 .447 1 1s-.447 1-1 1z"/></g><g><path d="m39.005 52.027h-.999c-.553 0-1-.447-1-1s.447-1 1-1h.999c.553 0 1 .447 1 1s-.447 1-1 1z"/></g><g><path d="m39.006 54.026c-.367 0-.721-.202-.896-.553l-.999-1.999c-.247-.494-.047-1.095.447-1.342.493-.245 1.096-.047 1.342.447l.999 1.999c.247.494.047 1.095-.447 1.342-.143.072-.296.106-.446.106z"/></g><g><path d="m39.005 54.026h-.999c-.553 0-1-.447-1-1s.447-1 1-1h.999c.553 0 1 .447 1 1s-.447 1-1 1z"/></g><g><path d="m35.006 53.026h-2.998c-.553 0-1-.447-1-1s.447-1 1-1h2.998c.553 0 1 .447 1 1s-.447 1-1 1z"/></g><g><path d="m25.003 53.026h-10.006c-.553 0-1-.447-1-1s.447-1 1-1h10.006c.553 0 1 .447 1 1s-.447 1-1 1z"/></g><g><path d="m46.008 58.998h-38.014c-.553 0-1-.447-1-1s.447-1 1-1h38.014c.553 0 1 .447 1 1s-.447 1-1 1z"/></g><g><path d="m52.998 5.997c-.553 0-1-.447-1-1 0-1.652-1.343-2.996-2.994-2.996-1.653 0-2.998 1.344-2.998 2.996 0 .553-.447 1-1 1s-1-.447-1-1c0-2.755 2.242-4.996 4.998-4.996 2.754 0 4.994 2.241 4.994 4.996 0 .553-.447 1-1 1z"/></g><g><path d="m57.006 23.997c-2.755 0-4.996-2.241-4.996-4.996 0-.553.447-1 1-1s1 .447 1 1c0 1.652 1.344 2.996 2.996 2.996s2.996-1.344 2.996-2.996c0-.553.447-1 1-1s1 .447 1 1c0 2.755-2.241 4.996-4.996 4.996z"/></g><g><path d="m9 5.997c-.553 0-1-.447-1-1 0-2.755 2.241-4.996 4.996-4.996.553 0 1 .447 1 1s-.447 1-1 1c-1.652 0-2.996 1.344-2.996 2.996 0 .553-.447 1-1 1z"/></g><g><path d="m49.004 2.001h-36.008c-.553 0-1-.447-1-1s.447-1 1-1h36.008c.553 0 1 .447 1 1s-.447 1-1 1z"/></g><g><path d="m52.998 20.001c-.553 0-1-.447-1-1v-14.004c0-.553.447-1 1-1s1 .447 1 1v14.004c0 .553-.447 1-1 1z"/></g><g><path d="m57.006 23.997h-12.006c-.553 0-1-.447-1-1s.447-1 1-1h12.006c.553 0 1 .447 1 1s-.447 1-1 1z"/></g><g><path d="m61.002 20.001c-.553 0-1-.447-1-1v-5.002c0-.553.447-1 1-1s1 .447 1 1v5.002c0 .553-.447 1-1 1z"/></g><g><path d="m49.002 63.999h-44.004c-1.654 0-3-1.346-3-3v-6.005c0-1.654 1.346-3 3-3h3.998c.553 0 1 .447 1 1s-.447 1-1 1h-3.998c-.552 0-1 .448-1 1v6.005c0 .552.448 1 1 1h44.004c.552 0 1-.448 1-1v-6.005c0-.552-.447-1-.996-1h-3.998c-.553 0-1-.447-1-1s.447-1 1-1h3.998c1.652 0 2.996 1.346 2.996 3v6.005c0 1.654-1.346 3-3 3z"/></g><g><path d="m61.002 14.999c-.256 0-.512-.098-.707-.293l-2-2c-.391-.391-.391-1.023 0-1.414s1.023-.391 1.414 0l2 2c.391.391.391 1.023 0 1.414-.195.195-.451.293-.707.293z"/></g><g><path d="m57.006 14.996c-.256 0-.512-.098-.707-.293-.391-.391-.391-1.023 0-1.414l1.996-1.997c.391-.391 1.023-.391 1.414 0s.391 1.023 0 1.414l-1.996 1.997c-.195.195-.451.293-.707.293z"/></g><g><path d="m56.998 14.999c-.256 0-.512-.098-.707-.293l-2-2c-.391-.391-.391-1.023 0-1.414s1.023-.391 1.414 0l2 2c.391.391.391 1.023 0 1.414-.195.195-.451.293-.707.293z"/></g><g><path d="m53 14.996c-.256 0-.512-.098-.707-.293-.391-.391-.391-1.023 0-1.414l1.998-1.997c.391-.391 1.023-.391 1.414 0s.391 1.023 0 1.414l-1.998 1.997c-.195.195-.451.293-.707.293z"/></g></g></svg>