<svg id="Capa_1" enable-background="new 0 0 512 512" height="512" viewBox="0 0 512 512" width="512" xmlns="http://www.w3.org/2000/svg"><g><path d="m498.673 429.594-53.479-6.004v-33.18l53.479-6.004c4.786-.537 9.022-3.34 11.39-7.533 2.367-4.194 2.577-9.27.563-13.645-17.119-37.194-54.578-61.228-95.432-61.228-37.562 0-72.254 20.316-90.907 52.5h-136.575c-18.652-32.184-53.344-52.5-90.906-52.5-40.854 0-78.313 24.034-95.432 61.228-2.014 4.375-1.804 9.45.563 13.645 2.367 4.193 6.604 6.996 11.39 7.533l53.479 6.004v33.18l-53.479 6.004c-4.786.537-9.023 3.34-11.39 7.533-2.367 4.194-2.577 9.269-.563 13.644 17.119 37.195 54.578 61.229 95.432 61.229 37.562 0 72.254-20.316 90.907-52.5h136.575c18.652 32.184 53.345 52.5 90.907 52.5 40.854 0 78.313-24.034 95.432-61.229 2.014-4.375 1.804-9.45-.563-13.644-2.368-4.193-6.605-6.996-11.391-7.533zm-83.479 52.406c-29.18 0-55.941-17.182-68.18-43.772-2.448-5.32-7.77-8.728-13.626-8.728h-154.777c-5.856 0-11.178 3.408-13.626 8.728-12.238 26.59-39 43.772-68.18 43.772-21.692 0-42.048-9.495-56.094-25.292l42.768-4.802c7.589-.852 13.327-7.27 13.327-14.906v-60c0-7.637-5.737-14.055-13.327-14.906l-42.768-4.802c14.047-15.797 34.402-25.292 56.095-25.292 29.18 0 55.941 17.182 68.18 43.771 2.448 5.32 7.77 8.729 13.626 8.729h154.777c5.856 0 11.178-3.408 13.626-8.729 12.238-26.59 39-43.771 68.18-43.771 21.692 0 42.048 9.495 56.094 25.292l-42.768 4.802c-7.589.852-13.327 7.27-13.327 14.906v60c0 7.637 5.737 14.055 13.327 14.906l42.768 4.802c-14.047 15.797-34.402 25.292-56.095 25.292z"/><path d="m105.978 127.597 17.971 10.376c-1.461 7.987-2.199 16.114-2.199 24.277 0 8.164.738 16.291 2.199 24.278l-17.971 10.376c-3.445 1.989-5.959 5.266-6.989 9.108-1.03 3.843-.491 7.937 1.498 11.382l30.001 51.961c4.142 7.175 13.317 9.635 20.49 5.49l17.989-10.385c12.442 10.604 26.691 18.843 42.032 24.303v20.737c0 8.284 6.716 15 15 15h60c8.284 0 15-6.716 15-15v-20.735c15.342-5.46 29.591-13.699 42.034-24.304l17.989 10.386c3.446 1.989 7.539 2.528 11.382 1.499 3.843-1.03 7.119-3.544 9.108-6.989l30-51.962c4.142-7.175 1.684-16.349-5.49-20.49l-17.971-10.376c1.461-7.987 2.199-16.114 2.199-24.278 0-8.163-.738-16.29-2.199-24.277l17.971-10.376c7.174-4.142 9.632-13.315 5.49-20.49l-30-51.962c-1.989-3.445-5.265-5.959-9.108-6.989-3.844-1.029-7.938-.49-11.382 1.499l-17.988 10.384c-12.444-10.605-26.693-18.845-42.034-24.305v-20.735c0-8.284-6.716-15-15-15h-60c-8.284 0-15 6.716-15 15v20.736c-15.342 5.46-29.591 13.699-42.033 24.304l-17.988-10.386c-3.445-1.989-7.539-2.527-11.382-1.499-3.843 1.03-7.119 3.544-9.108 6.989l-30 51.962c-4.143 7.175-1.685 16.349 5.489 20.491zm42.99-44.462 14.586 8.422c5.915 3.417 13.392 2.403 18.186-2.463 13.259-13.459 29.866-23.06 48.023-27.766 6.616-1.715 11.237-7.685 11.237-14.52v-16.808h30v16.808c0 6.835 4.621 12.806 11.238 14.521 18.156 4.704 34.762 14.306 48.023 27.766 4.794 4.864 12.27 5.877 18.185 2.463l14.586-8.422 15 25.981-14.56 8.406c-5.913 3.414-8.774 10.391-6.961 16.974 2.481 9.008 3.739 18.346 3.739 27.754 0 9.409-1.258 18.747-3.74 27.755-1.813 6.583 1.048 13.56 6.961 16.974l14.56 8.406-15 25.981-14.586-8.422c-5.915-3.416-13.391-2.402-18.185 2.463-13.26 13.459-29.867 23.06-48.023 27.765-6.616 1.715-11.237 7.685-11.237 14.521v16.806h-30v-16.808c0-6.835-4.621-12.806-11.237-14.521-18.157-4.705-34.763-14.307-48.022-27.764-4.795-4.867-12.27-5.881-18.184-2.463l-14.587 8.42-15-25.98 14.559-8.406c5.914-3.414 8.775-10.391 6.961-16.974-2.481-9.008-3.74-18.346-3.74-27.755 0-9.408 1.258-18.746 3.739-27.754 1.813-6.583-1.048-13.56-6.962-16.974l-14.559-8.406z"/><path d="m257.729 226.5c35.428 0 64.25-28.822 64.25-64.25s-28.823-64.25-64.25-64.25c-35.428 0-64.25 28.822-64.25 64.25s28.822 64.25 64.25 64.25zm0-98.5c18.886 0 34.25 15.364 34.25 34.25s-15.364 34.25-34.25 34.25-34.25-15.364-34.25-34.25 15.364-34.25 34.25-34.25z"/></g></svg>