<svg height="384pt" viewBox="-64 0 384 384.088" width="384pt" xmlns="http://www.w3.org/2000/svg"><path d="m256.042969 192v-192h-256.0000002v192h80.0000002v12.894531c-29.472657 16.992188-48 48.554688-48 83.105469 0 34.808594 18.929687 66.96875 49.402343 83.921875 14.605469 8.125 30.421876 12.167969 46.535157 12.167969 19.28125 0 38.992187-5.792969 57.542969-17.304688 8.679687-5.394531 16.097656-12.839844 21.410156-21.496094 16.972656-27.433593 21.503906-57.953124 12.765625-85.921874-7.222657-23.128907-22.871094-42.503907-43.65625-54.480469v-12.886719zm-224-160h192v32h-192zm121.609375 197.382812c17.03125 7.425782 29.96875 21.832032 35.503906 39.539063 4.191406 13.421875 5.960938 34.644531-9.472656 59.582031-2.75 4.480469-6.574219 8.320313-11.046875 11.097656-23.878907 14.824219-50 16.398438-71.640625 4.351563-20.320313-11.304687-32.953125-32.753906-32.953125-55.953125 0-25.433594 15.074219-48.441406 38.402343-58.617188l9.597657-4.183593v-65.199219h-80v-64h192v64h-80v65.199219zm0 0"/><path d="m112.042969 272h32v32h-32zm0 0"/></svg>