<svg id="Layer_1" enable-background="new 0 0 512 512" height="512" viewBox="0 0 512 512" width="512" xmlns="http://www.w3.org/2000/svg"><g><path d="m160 328h48v12h-48z"/><path d="m304 152h48v12h-48z"/><path d="m58 0v512h44v-71.515l44.485-44.485h219.029l44.486 44.485v71.515h44v-512zm32 500h-20v-488h20zm12-456h27.515l-27.515 27.515zm0 176h27.515l-27.515 27.515zm0 203.515v-27.515h27.515zm308 0-27.515-27.515h27.515zm0-39.515h-308v-20h308zm-176-68v36h-100v-36zm-100-12v-20h100v20zm216 12v-48h28v84h-100v-84h28v48zm-32-12v-36h20v36zm92 48h-20v-96h-124v96h-20v-80h-124v80h-20v-87.515l44.485-44.485h219.029l44.486 44.485zm0-104.485-27.515-27.515h27.515zm0-39.515h-308v-20h308zm-204-68v-48h28v84h-100v-84h28v48zm-32-12v-36h20v36zm204 12v36h-100v-36zm-100-12v-20h100v20zm132 48h-20v-80h-124v80h-20v-96h-124v96h-20v-87.515l44.485-44.485h219.029l44.486 44.485zm0-104.485-27.515-27.515h27.515zm0-39.515h-308v-20h308zm32 468h-20v-488h20z"/></g></svg>