<svg height="512pt" viewBox="0 0 512 512.002" width="512pt" xmlns="http://www.w3.org/2000/svg"><path d="m512 104.878906v-.03125c-.082031-13.953125-8.492188-26.410156-21.4375-31.734375-13.039062-5.359375-27.894531-2.398437-37.84375 7.554688l-16.597656 16.59375c-1.40625 1.40625-3.171875 2.484375-5.445313 3.316406-5.667969 2.101563-11.785156.820313-15.9375-3.316406-2.859375-2.855469-4.433593-6.652344-4.433593-10.691407 0-1.507812.367187-3.253906 1.0625-5.101562.929687-2.433594 1.992187-4.195312 3.402343-5.589844l16.589844-16.601562c9.945313-9.953125 12.902344-24.804688 7.542969-37.839844-5.410156-13.148438-17.582032-21.3632812-31.738282-21.43359375l-.539062-.00390625c-26.878906 0-52.425781 10.160156-71.933594 28.613281-19.238281 18.191407-30.863281 42.753907-32.773437 69.203125-1.484375 12.03125.542969 24.121094 2.519531 32.191406.371094 1.507813-.117188 3.167969-1.277344 4.328126l-168.761718 168.734374c-1.15625 1.152344-2.851563 1.589844-4.539063 1.175782-9.40625-2.324219-19.402344-3.066406-31.5625-2.332032-26.640625 1.777344-51.390625 13.414063-69.695313 32.769532-18.445312 19.503906-28.601562 45.050781-28.601562 71.941406l.00390625.488281c.06640625 13.972657 8.48046875 26.441407 21.43359375 31.773438 13.039062 5.359375 27.894531 2.398437 37.847656-7.554688l19.039063-19.035156c1.375-1.375 3.222656-2.523437 5.496093-3.40625 5.574219-2.027344 11.789063-.699219 15.863282 3.390625l.074218.070312c2.78125 2.753907 4.378907 6.632813 4.378907 10.636719 0 1.5625-.355469 3.257813-1.097657 5.230469-.878906 2.347656-1.921874 4.085938-3.183593 5.3125l-19.1875 19.1875c-9.953125 9.949219-12.917969 24.804688-7.554688 37.84375 5.328125 12.957031 17.800781 21.371094 31.738281 21.4375l.53125.003906c26.878907-.019531 52.425782-10.191406 71.929688-28.640625 19.300781-18.261719 30.941406-42.929687 32.789062-69.480469.863282-9.554687-.082031-20.886718-2.664062-31.941406-.339844-1.464844.15625-3.089844 1.304688-4.234375l168.925781-168.898437c1.167969-1.167969 2.855469-1.625 4.527343-1.230469 10.566407 2.515625 21.207032 3.371094 31.640626 2.527344 26.582031-1.832031 51.277343-13.472657 69.550781-32.792969 18.453125-19.507812 28.613281-45.054688 28.613281-71.9375zm-50.40625 51.816406c-13.101562 13.851563-30.820312 22.191407-49.898438 23.484376l-.199218.015624c-7.308594.59375-14.824219-.011718-22.347656-1.804687-11.882813-2.828125-24.101563.609375-32.691407 9.199219l-168.925781 168.898437c-8.421875 8.421875-11.988281 20.789063-9.304688 32.277344 1.855469 7.945313 2.582032 16.15625 1.988282 22.523437l-.03125.375c-1.296875 19.074219-9.636719 36.800782-23.488282 49.902344-13.914062 13.164063-32.144531 20.421875-51.320312 20.433594l-.347656-.003906c-2.480469-.011719-3.636719-1.554688-4.167969-2.847656-.457031-1.109376-.933594-3.265626 1.023437-5.222657l18.96875-18.96875c4.410157-4.3125 7.871094-9.773437 10.269532-16.195312 2-5.300781 3.015625-10.609375 3.015625-15.773438 0-11.9375-4.820313-23.566406-13.230469-31.917969-12.355469-12.375-31.03125-16.417968-47.582031-10.285156l-.179688.066406c-6.261719 2.40625-11.65625 5.851563-16.035156 10.230469l-19.039063 19.039063c-1.953124 1.949218-4.109374 1.476562-5.21875 1.019531-1.292968-.53125-2.839843-1.6875-2.851562-4.203125v-.3125c0-19.1875 7.246094-37.417969 20.398438-51.328125 13.097656-13.851563 30.8125-22.175781 49.800781-23.441406 9.074219-.546875 16-.082031 22.457031 1.515625 11.804688 2.914062 24.429688-.5625 32.949219-9.082032l168.765625-168.738281c8.53125-8.527343 12.058594-21.054687 9.203125-32.6875-1.96875-8.035156-2.625-15.710937-1.847657-21.621093l.09375-.9375c1.292969-19.078126 9.632813-36.796876 23.484376-49.898438 13.914062-13.160156 32.140624-20.40625 51.320312-20.40625h.363281c2.480469.015625 3.636719 1.558594 4.167969 2.851562.457031 1.109376.933594 3.265626-1.019531 5.21875l-16.535157 16.546876c-4.433593 4.394531-7.792968 9.679687-10.292968 16.234374-1.992188 5.3125-3.003906 10.601563-3.003906 15.71875 0 12.050782 4.695312 23.378907 13.238281 31.921876 12.363281 12.324218 31.027343 16.335937 47.496093 10.238281 6.320313-2.3125 11.804688-5.765625 16.296876-10.253907l16.59375-16.597656c1.953124-1.949218 4.109374-1.476562 5.222656-1.019531 1.292968.53125 2.835937 1.6875 2.847656 4.167969v.347656c0 19.179688-7.246094 37.40625-20.40625 51.320312zm0 0"/></svg>