<?xml version="1.0" encoding="utf-8"?>
<!-- Generator: Adobe Illustrator 17.0.0, SVG Export Plug-In . SVG Version: 6.00 Build 0)  -->
<!DOCTYPE svg PUBLIC "-//W3C//DTD SVG 1.1//EN" "http://www.w3.org/Graphics/SVG/1.1/DTD/svg11.dtd">
<svg version="1.1" xmlns="http://www.w3.org/2000/svg" xmlns:xlink="http://www.w3.org/1999/xlink" x="0px" y="0px"
	 width="529.398px" height="754.015px" viewBox="0 0 529.398 754.015" enable-background="new 0 0 529.398 754.015"
	 xml:space="preserve">
<g id="Слой_1" display="none">
	<g id="Слой_1_1_">
		<path display="inline" fill="#248bb8" stroke="#323232" stroke-miterlimit="10" d="M400.818,377.008
			c-73.417-36.907-172.63-59.528-281.764-59.528l119.055-158.74L119.054-0.001c226.601,0,410.343,97.625,410.343,218.268v317.48
			C529.794,473.045,480.188,416.693,400.818,377.008z"/>
		<path display="inline" fill="#7fc2dc" stroke="#323232" stroke-miterlimit="10" d="M400.818,377.008
			c79.37,39.685,128.579,96.038,128.579,158.74c0,120.642-183.742,218.268-410.343,218.268L-0.001,595.276l119.055-158.74
			C228.188,436.534,327.401,413.914,400.818,377.008z"/>
	</g>
	<g id="Слой_1__x28_копия_x29_">
		<path display="inline" fill="#248bb8" stroke="#323232" stroke-miterlimit="10" d="M371.199,364.508
			C276.455,327.601,140.69,317.48-0.146,317.48l153.639-158.74L-0.146-0.001c292.426,0,529.542,97.625,529.542,218.268v317.48
			C529.908,473.045,473.625,404.193,371.199,364.508z"/>
		<path display="inline" fill="#7fc2dc" stroke="#323232" stroke-miterlimit="10" d="M400.818,377.008
			c79.37,39.685,128.579,96.038,128.579,158.74c0,120.642-183.742,218.268-410.343,218.268L-0.001,595.276l119.055-158.74
			C228.188,436.534,327.401,413.914,400.818,377.008z"/>
	</g>
	<g id="Слой_1__x28_копия2_x29_" display="inline">
		<path fill="#248bb8" stroke="#323232" stroke-miterlimit="10" d="M371.199,364.508C276.455,327.601,140.69,317.48-0.146,317.48
			l119.534-157.879L0.854,0.999c292.426,0,528.542,96.625,528.542,217.268v317.48C529.908,473.045,473.625,404.193,371.199,364.508z
			"/>
		<path fill="#7fc2dc" stroke="#323232" stroke-miterlimit="10" d="M400.818,377.008c79.37,39.685,128.579,96.038,128.579,158.74
			c0,120.642-183.742,218.268-410.343,218.268L-0.001,595.276l119.055-158.74C228.188,436.534,327.401,413.914,400.818,377.008z"/>
	</g>
</g>
<g id="Слой_1_копия_2" display="none">
	<g id="Слой_1_5_">
		<path display="inline" fill="#248bb8" stroke="#323232" stroke-miterlimit="10" d="M400.818,377.008
			c-73.417-36.907-172.63-59.528-281.764-59.528l119.055-158.74L119.054-0.001c226.601,0,410.343,97.625,410.343,218.268v317.48
			C529.794,473.045,480.188,416.693,400.818,377.008z"/>
		<path display="inline" fill="#7fc2dc" stroke="#323232" stroke-miterlimit="10" d="M400.818,377.008
			c79.37,39.685,128.579,96.038,128.579,158.74c0,120.642-183.742,218.268-410.343,218.268L-0.001,595.276l119.055-158.74
			C228.188,436.534,327.401,413.914,400.818,377.008z"/>
	</g>
	<g id="Слой_1__x28_копия_x29__3_">
		<path display="inline" fill="#248bb8" stroke="#323232" stroke-miterlimit="10" d="M371.199,364.508
			C276.455,327.601,140.69,317.48-0.146,317.48l153.639-158.74L-0.146-0.001c292.426,0,529.542,97.625,529.542,218.268v317.48
			C529.908,473.045,473.625,404.193,371.199,364.508z"/>
		<path display="inline" fill="#7fc2dc" stroke="#323232" stroke-miterlimit="10" d="M400.818,377.008
			c79.37,39.685,128.579,96.038,128.579,158.74c0,120.642-183.742,218.268-410.343,218.268L-0.001,595.276l119.055-158.74
			C228.188,436.534,327.401,413.914,400.818,377.008z"/>
	</g>
	<g id="Слой_1__x28_копия2_x29__4_" display="inline">
		<path fill="#248bb8" stroke="#323232" stroke-miterlimit="10" d="M371.199,364.508C276.455,327.601,140.69,305.48-0.146,305.48
			l119.534-148.879L0.854,0.999c292.426,0,528.542,96.625,528.542,217.268v317.48C529.908,473.045,473.625,404.193,371.199,364.508z
			"/>
		<path fill="#7fc2dc" stroke="#323232" stroke-miterlimit="10" d="M400.818,377.008c79.37,39.685,128.579,96.038,128.579,158.74
			c0,120.642-183.742,218.268-410.343,218.268L-0.001,609.276l119.055-143.74C264.627,459.508,339.199,415.508,400.818,377.008z"/>
	</g>
</g>
<g id="Слой_1_копия_3" display="none">
	<g id="Слой_1_4_">
		<path display="inline" fill="#248bb8" stroke="#323232" stroke-miterlimit="10" d="M400.818,377.008
			c-73.417-36.907-172.63-59.528-281.764-59.528l119.055-158.74L119.054-0.001c226.601,0,410.343,97.625,410.343,218.268v317.48
			C529.794,473.045,480.188,416.693,400.818,377.008z"/>
		<path display="inline" fill="#7fc2dc" stroke="#323232" stroke-miterlimit="10" d="M400.818,377.008
			c79.37,39.685,128.579,96.038,128.579,158.74c0,120.642-183.742,218.268-410.343,218.268L-0.001,595.276l119.055-158.74
			C228.188,436.534,327.401,413.914,400.818,377.008z"/>
	</g>
	<g id="Слой_1__x28_копия_x29__5_">
		<path display="inline" fill="#248bb8" stroke="#323232" stroke-miterlimit="10" d="M371.199,364.508
			C276.455,327.601,140.69,317.48-0.146,317.48l153.639-158.74L-0.146-0.001c292.426,0,529.542,97.625,529.542,218.268v317.48
			C529.908,473.045,473.625,404.193,371.199,364.508z"/>
		<path display="inline" fill="#7fc2dc" stroke="#323232" stroke-miterlimit="10" d="M400.818,377.008
			c79.37,39.685,128.579,96.038,128.579,158.74c0,120.642-183.742,218.268-410.343,218.268L-0.001,595.276l119.055-158.74
			C228.188,436.534,327.401,413.914,400.818,377.008z"/>
	</g>
	<g id="Слой_1__x28_копия2_x29__5_" display="inline">
		<path fill="#248bb8" stroke="#323232" stroke-miterlimit="10" d="M371.199,364.508C276.455,327.601,140.69,305.48-0.146,305.48
			l119.534-148.879L0.854,0.999c292.426,0,528.542,96.625,528.542,217.268v317.48C529.908,473.045,473.625,404.193,371.199,364.508z
			"/>
		<path fill="#7fc2dc" stroke="#323232" stroke-miterlimit="10" d="M-281.828,377.163
			c-79.071-40.278-127.857-96.997-127.388-159.697C-408.314,96.827-223.847,0.578,2.748,2.273L120.717,147.9L0.59,290.745
			C-145.024,295.685-219.923,339.126-281.828,377.163z"/>
	</g>
</g>
<g id="Слой_1__x28_копия_x29__2_" display="none">
	<g id="Слой_1_3_">
		<path display="inline" fill="#248bb8" stroke="#323232" stroke-miterlimit="10" d="M400.818,377.008
			c-73.417-36.907-172.63-59.528-281.764-59.528l119.055-158.74L119.054-0.001c226.601,0,410.343,97.625,410.343,218.268v317.48
			C529.794,473.045,480.188,416.693,400.818,377.008z"/>
		<path display="inline" fill="#7fc2dc" stroke="#323232" stroke-miterlimit="10" d="M400.818,377.008
			c79.37,39.685,128.579,96.038,128.579,158.74c0,120.642-183.742,218.268-410.343,218.268L-0.001,595.276l119.055-158.74
			C228.188,436.534,327.401,413.914,400.818,377.008z"/>
	</g>
	<g id="Слой_1__x28_копия_x29__1_">
		<path display="inline" fill="#248bb8" stroke="#323232" stroke-miterlimit="10" d="M371.199,364.508
			C276.455,327.601,140.69,317.48-0.146,317.48l153.639-158.74L-0.146-0.001c292.426,0,529.542,97.625,529.542,218.268v317.48
			C529.908,473.045,473.625,404.193,371.199,364.508z"/>
		<path display="inline" fill="#7fc2dc" stroke="#323232" stroke-miterlimit="10" d="M400.818,377.008
			c79.37,39.685,128.579,96.038,128.579,158.74c0,120.642-183.742,218.268-410.343,218.268L-0.001,595.276l119.055-158.74
			C228.188,436.534,327.401,413.914,400.818,377.008z"/>
	</g>
	<g id="Слой_1__x28_копия2_x29__1_" display="inline">
		<path fill="#248bb8" stroke="#323232" stroke-miterlimit="10" d="M371.199,364.508C276.455,327.601,140.69,317.48-0.146,317.48
			l127.345-157.972L-0.146-0.001c292.426,0,529.542,97.625,529.542,218.268v317.48C529.908,473.045,473.625,404.193,371.199,364.508
			z"/>
		<path fill="#7fc2dc" stroke="#323232" stroke-miterlimit="10" d="M400.818,377.008c79.37,39.685,128.579,96.038,128.579,158.74
			c0,120.642-183.742,218.268-410.343,218.268L-0.001,595.276l119.055-158.74C228.188,436.534,327.401,413.914,400.818,377.008z"/>
	</g>
</g>
<g id="Слой_1__x28_копия3_x29_" display="none">
	<g id="Слой_1_6_">
		<path display="inline" fill="#248bb8" stroke="#323232" stroke-miterlimit="10" d="M400.818,377.008
			c-73.417-36.907-172.63-59.528-281.764-59.528l119.055-158.74L119.054-0.001c226.601,0,410.343,97.625,410.343,218.268v317.48
			C529.794,473.045,480.188,416.693,400.818,377.008z"/>
		<path display="inline" fill="#7fc2dc" stroke="#323232" stroke-miterlimit="10" d="M400.818,377.008
			c79.37,39.685,128.579,96.038,128.579,158.74c0,120.642-183.742,218.268-410.343,218.268L-0.001,595.276l119.055-158.74
			C228.188,436.534,327.401,413.914,400.818,377.008z"/>
	</g>
	<g id="Слой_1__x28_копия_x29__7_">
		<path display="inline" fill="#248bb8" stroke="#323232" stroke-miterlimit="10" d="M371.199,364.508
			C276.455,327.601,140.69,317.48-0.146,317.48l153.639-158.74L-0.146-0.001c292.426,0,529.542,97.625,529.542,218.268v317.48
			C529.908,473.045,473.625,404.193,371.199,364.508z"/>
		<path display="inline" fill="#7fc2dc" stroke="#323232" stroke-miterlimit="10" d="M400.818,377.008
			c79.37,39.685,128.579,96.038,128.579,158.74c0,120.642-183.742,218.268-410.343,218.268L-0.001,595.276l119.055-158.74
			C228.188,436.534,327.401,413.914,400.818,377.008z"/>
	</g>
	<g id="Слой_1__x28_копия2_x29__6_" display="inline">
		<path fill="#248bb8" stroke="#323232" stroke-miterlimit="10" d="M371.199,364.508C276.455,327.601,140.69,317.48-0.146,317.48
			l127.345-157.972L-0.146-0.001c292.426,0,529.542,97.625,529.542,218.268v317.48C529.908,473.045,473.625,404.193,371.199,364.508
			z"/>
		<path fill="#7fc2dc" stroke="#323232" stroke-miterlimit="10" d="M400.818,377.008c79.37,39.685,128.579,96.038,128.579,158.74
			c0,120.642-183.742,218.268-410.343,218.268L-0.001,614.276l119.055-141.74C233.199,464.508,359.199,425.508,400.818,377.008z"/>
	</g>
</g>
<g id="Слой_1__x28_копия4_x29_" display="none">
	<g id="Слой_1_7_">
		<path display="inline" fill="#248bb8" stroke="#323232" stroke-miterlimit="10" d="M400.818,377.008
			c-73.417-36.907-172.63-59.528-281.764-59.528l119.055-158.74L119.054-0.001c226.601,0,410.343,97.625,410.343,218.268v317.48
			C529.794,473.045,480.188,416.693,400.818,377.008z"/>
		<path display="inline" fill="#7fc2dc" stroke="#323232" stroke-miterlimit="10" d="M400.818,377.008
			c79.37,39.685,128.579,96.038,128.579,158.74c0,120.642-183.742,218.268-410.343,218.268L-0.001,595.276l119.055-158.74
			C228.188,436.534,327.401,413.914,400.818,377.008z"/>
	</g>
	<g id="Слой_1__x28_копия_x29__6_">
		<path display="inline" fill="#248bb8" stroke="#323232" stroke-miterlimit="10" d="M371.199,364.508
			C276.455,327.601,140.69,317.48-0.146,317.48l153.639-158.74L-0.146-0.001c292.426,0,529.542,97.625,529.542,218.268v317.48
			C529.908,473.045,473.625,404.193,371.199,364.508z"/>
		<path display="inline" fill="#7fc2dc" stroke="#323232" stroke-miterlimit="10" d="M400.818,377.008
			c79.37,39.685,128.579,96.038,128.579,158.74c0,120.642-183.742,218.268-410.343,218.268L-0.001,595.276l119.055-158.74
			C228.188,436.534,327.401,413.914,400.818,377.008z"/>
	</g>
	<g id="Слой_1__x28_копия2_x29__7_" display="inline">
		<path fill="#248bb8" stroke="#323232" stroke-miterlimit="10" d="M371.199,364.508C276.455,327.601,140.69,317.48-0.146,317.48
			l127.345-157.972L-0.146-0.001c292.426,0,529.542,97.625,529.542,218.268v317.48C529.908,473.045,473.625,404.193,371.199,364.508
			z"/>
		<path fill="#7fc2dc" d="M400.818,377.008c79.37,39.685,128.579,96.038,128.579,158.74c0,120.642-196.742,218.268-423.343,218.268
			L-0.001,614.276l105.055-140.74C219.199,465.508,359.199,425.508,400.818,377.008z"/>
	</g>
</g>
<g id="Слой_1__x28_копия6_x29_" display="none">
	<g id="Слой_1_8_">
		<path display="inline" fill="#248bb8" stroke="#323232" stroke-miterlimit="10" d="M400.818,377.008
			c-73.417-36.907-172.63-59.528-281.764-59.528l119.055-158.74L119.054-0.001c226.601,0,410.343,97.625,410.343,218.268v317.48
			C529.794,473.045,480.188,416.693,400.818,377.008z"/>
		<path display="inline" fill="#7fc2dc" stroke="#323232" stroke-miterlimit="10" d="M400.818,377.008
			c79.37,39.685,128.579,96.038,128.579,158.74c0,120.642-183.742,218.268-410.343,218.268L-0.001,595.276l119.055-158.74
			C228.188,436.534,327.401,413.914,400.818,377.008z"/>
	</g>
	<g id="Слой_1__x28_копия_x29__8_">
		<path display="inline" fill="#248bb8" stroke="#323232" stroke-miterlimit="10" d="M371.199,364.508
			C276.455,327.601,140.69,317.48-0.146,317.48l153.639-158.74L-0.146-0.001c292.426,0,529.542,97.625,529.542,218.268v317.48
			C529.908,473.045,473.625,404.193,371.199,364.508z"/>
		<path display="inline" fill="#7fc2dc" stroke="#323232" stroke-miterlimit="10" d="M400.818,377.008
			c79.37,39.685,128.579,96.038,128.579,158.74c0,120.642-183.742,218.268-410.343,218.268L-0.001,595.276l119.055-158.74
			C228.188,436.534,327.401,413.914,400.818,377.008z"/>
	</g>
	<g id="Слой_1__x28_копия2_x29__3_" display="inline">
		<path fill="#248bb8" d="M371.199,364.508c-94.744-36.907-229.832-84.02-370.668-84.02L106.13,140.155L-0.146-0.001
			c292.426,0,529.542,97.625,529.542,218.268v317.48C529.908,473.045,473.625,404.193,371.199,364.508z"/>
		<path fill="#7fc2dc" d="M400.818,377.008c79.37,39.685,128.579,96.038,128.579,158.74c0,120.642-196.742,218.268-423.343,218.268
			L-0.001,614.276l105.055-140.74C219.199,465.508,359.199,425.508,400.818,377.008z"/>
	</g>
</g>
<g id="Слой_1__x28_копия7_x29_" display="none">
	<g id="Слой_1_9_">
		<path display="inline" fill="#248bb8" stroke="#323232" stroke-miterlimit="10" d="M400.818,377.008
			c-73.417-36.907-172.63-59.528-281.764-59.528l119.055-158.74L119.054-0.001c226.601,0,410.343,97.625,410.343,218.268v317.48
			C529.794,473.045,480.188,416.693,400.818,377.008z"/>
		<path display="inline" fill="#7fc2dc" stroke="#323232" stroke-miterlimit="10" d="M400.818,377.008
			c79.37,39.685,128.579,96.038,128.579,158.74c0,120.642-183.742,218.268-410.343,218.268L-0.001,595.276l119.055-158.74
			C228.188,436.534,327.401,413.914,400.818,377.008z"/>
	</g>
	<g id="Слой_1__x28_копия_x29__9_">
		<path display="inline" fill="#248bb8" stroke="#323232" stroke-miterlimit="10" d="M371.199,364.508
			C276.455,327.601,140.69,317.48-0.146,317.48l153.639-158.74L-0.146-0.001c292.426,0,529.542,97.625,529.542,218.268v317.48
			C529.908,473.045,473.625,404.193,371.199,364.508z"/>
		<path display="inline" fill="#7fc2dc" stroke="#323232" stroke-miterlimit="10" d="M400.818,377.008
			c79.37,39.685,128.579,96.038,128.579,158.74c0,120.642-183.742,218.268-410.343,218.268L-0.001,595.276l119.055-158.74
			C228.188,436.534,327.401,413.914,400.818,377.008z"/>
	</g>
	<g id="Слой_1__x28_копия2_x29__8_" display="inline">
		<path fill="#248bb8" d="M0.531,280.488L105.13,140.155L-0.146-0.001c292.426,0,529.542,97.625,529.542,218.268v317.48
			C531.866,461.508,437.199,317.174,0.531,280.488z"/>
		<path fill="#7fc2dc" d="M400.818,377.008c79.37,39.685,128.579,96.038,128.579,158.74c0,120.642-196.742,218.268-423.343,218.268
			L0.999,614.276l104.055-140.74C219.199,465.508,359.199,425.508,400.818,377.008z"/>
	</g>
</g>
<g id="Слой_1__x28_копия8_x29_">
	<g id="Слой_1_10_" display="none">
		<path display="inline" fill="#248bb8" stroke="#323232" stroke-miterlimit="10" d="M400.818,377.008
			c-73.417-36.907-172.63-59.528-281.764-59.528l119.055-158.74L119.054-0.001c226.601,0,410.343,97.625,410.343,218.268v317.48
			C529.794,473.045,480.188,416.693,400.818,377.008z"/>
		<path display="inline" fill="#7fc2dc" stroke="#323232" stroke-miterlimit="10" d="M400.818,377.008
			c79.37,39.685,128.579,96.038,128.579,158.74c0,120.642-183.742,218.268-410.343,218.268L-0.001,595.276l119.055-158.74
			C228.188,436.534,327.401,413.914,400.818,377.008z"/>
	</g>
	<g id="Слой_1__x28_копия_x29__10_" display="none">
		<path display="inline" fill="#248bb8" stroke="#323232" stroke-miterlimit="10" d="M371.199,364.508
			C276.455,327.601,140.69,317.48-0.146,317.48l153.639-158.74L-0.146-0.001c292.426,0,529.542,97.625,529.542,218.268v317.48
			C529.908,473.045,473.625,404.193,371.199,364.508z"/>
		<path display="inline" fill="#7fc2dc" stroke="#323232" stroke-miterlimit="10" d="M400.818,377.008
			c79.37,39.685,128.579,96.038,128.579,158.74c0,120.642-183.742,218.268-410.343,218.268L-0.001,595.276l119.055-158.74
			C228.188,436.534,327.401,413.914,400.818,377.008z"/>
	</g>
	<g id="Слой_1__x28_копия2_x29__9_">
		<path fill="#7fc2dc" d="M401.818,374.008c79.37,39.685,127.579,99.038,127.579,161.74c0,120.642-196.742,218.268-423.343,218.268
			L0.999,614.276l104.055-140.74C219.199,465.508,360.199,422.508,401.818,374.008z"/>
		<path fill="#248bb8" d="M0.531,280.488L105.13,140.155L-0.146-0.001c292.426,0,529.542,97.625,529.542,218.268v317.48
			C529.42,478.508,461.199,309.508,0.531,280.488z"/>
	</g>
</g>
<g id="Слой_1__x28_копия5_x29_" display="none">
	<g id="Слой_1_2_">
		<path display="inline" fill="#248bb8" stroke="#323232" stroke-miterlimit="10" d="M400.818,377.008
			c-73.417-36.907-172.63-59.528-281.764-59.528l119.055-158.74L119.054-0.001c226.601,0,410.343,97.625,410.343,218.268v317.48
			C529.794,473.045,480.188,416.693,400.818,377.008z"/>
		<path display="inline" fill="#7fc2dc" stroke="#323232" stroke-miterlimit="10" d="M400.818,377.008
			c79.37,39.685,128.579,96.038,128.579,158.74c0,120.642-183.742,218.268-410.343,218.268L-0.001,595.276l119.055-158.74
			C228.188,436.534,327.401,413.914,400.818,377.008z"/>
	</g>
	<g id="Слой_1__x28_копия_x29__4_">
		<path display="inline" fill="#248bb8" stroke="#323232" stroke-miterlimit="10" d="M371.199,364.508
			C276.455,327.601,140.69,317.48-0.146,317.48l153.639-158.74L-0.146-0.001c292.426,0,529.542,97.625,529.542,218.268v317.48
			C529.908,473.045,473.625,404.193,371.199,364.508z"/>
		<path display="inline" fill="#7fc2dc" stroke="#323232" stroke-miterlimit="10" d="M400.818,377.008
			c79.37,39.685,128.579,96.038,128.579,158.74c0,120.642-183.742,218.268-410.343,218.268L-0.001,595.276l119.055-158.74
			C228.188,436.534,327.401,413.914,400.818,377.008z"/>
	</g>
	<g id="Слой_1__x28_копия2_x29__2_" display="inline">
		<path fill="#7fc2dc" d="M-295.604,375.87c-79.216-39.992-128.206-96.535-127.964-159.236
			C-423.101,95.993-225.983-0.871,0.616,0.006L106.13,140.155L0.531,280.488C-113.644,288.074-253.798,327.532-295.604,375.87z"/>
	</g>
</g>
<g id="Слой_11">
</g>
<g id="Слой_7" display="none">
	<polygon display="inline" fill="#B5CDD3" stroke="#323232" stroke-miterlimit="10" points="-2134.167,473.185 -2239.479,613.6 
		-2134.167,754.015 8.215,754.015 -97.096,613.6 8.215,473.185 	"/>
</g>
<g id="Слой_7__x28_копия_x29_" display="none">
	<polygon display="inline" fill="#B5CDD3" stroke="#323232" stroke-miterlimit="10" points="-2052.167,473.185 -2157.479,613.6 
		-2052.167,754.015 90.215,754.015 -15.096,613.6 90.215,473.185 	"/>
</g>
<g id="Слой_10" display="none">
	
		<image display="inline" overflow="visible" opacity="0.7" width="250" height="102" xlink:href="4096C24.jpg"  transform="matrix(9.5022 0 0 9.5022 -1797.7683 -97.6006)">
	</image>
</g>
</svg>
