<?xml version="1.0" encoding="UTF-8" standalone="no"?>
<!-- Generator: Adobe Illustrator 17.0.0, SVG Export Plug-In . SVG Version: 6.00 Build 0)  -->

<svg
   xmlns:dc="http://purl.org/dc/elements/1.1/"
   xmlns:cc="http://creativecommons.org/ns#"
   xmlns:rdf="http://www.w3.org/1999/02/22-rdf-syntax-ns#"
   xmlns:svg="http://www.w3.org/2000/svg"
   xmlns="http://www.w3.org/2000/svg"
   xmlns:xlink="http://www.w3.org/1999/xlink"
   xmlns:sodipodi="http://sodipodi.sourceforge.net/DTD/sodipodi-0.dtd"
   xmlns:inkscape="http://www.inkscape.org/namespaces/inkscape"
   version="1.1"
   x="0px"
   y="0px"
   width="529.398px"
   height="754.015px"
   viewBox="0 0 529.398 754.015"
   enable-background="new 0 0 529.398 754.015"
   xml:space="preserve"
   id="svg2"
   inkscape:version="0.91 r13725"
   sodipodi:docname="funel_arrow-curved-left.svg"><metadata
     id="metadata515"><rdf:RDF><cc:Work
         rdf:about=""><dc:format>image/svg+xml</dc:format><dc:type
           rdf:resource="http://purl.org/dc/dcmitype/StillImage" /></cc:Work></rdf:RDF></metadata><defs
     id="defs513" /><sodipodi:namedview
     pagecolor="#ffffff"
     bordercolor="#666666"
     borderopacity="1"
     objecttolerance="10"
     gridtolerance="10"
     guidetolerance="10"
     inkscape:pageopacity="0"
     inkscape:pageshadow="2"
     inkscape:window-width="753"
     inkscape:window-height="480"
     id="namedview511"
     showgrid="false"
     inkscape:zoom="0.31299111"
     inkscape:cx="264.69901"
     inkscape:cy="377.00751"
     inkscape:window-x="520"
     inkscape:window-y="95"
     inkscape:window-maximized="0"
     inkscape:current-layer="layer2" /><g
     inkscape:groupmode="layer"
     id="layer2"
     inkscape:label="Layer 2"><path
       style=""
       fill="#7fc2dc"
       d="M477.59,473.527L376.302,613.86L478.2,754.016c-263.6,0-477.343-97.625-477.343-218.268l0-317.48     C0.836,275.507,62.199,428.508,477.59,473.527z"
       id="path485" /></g><g
     id="Слой_1"
     display="none"><g
       id="Слой_1_2_"><g
         id="Слой_1_1_"
         display="inline"><path
           fill="#248bb8"
           stroke="#323232"
           stroke-miterlimit="10"
           d="M400.818,377.008c-73.417-36.907-172.63-59.528-281.764-59.528     l119.055-158.74L119.054-0.001c226.601,0,410.343,97.625,410.343,218.268v317.48     C529.794,473.045,480.188,416.693,400.818,377.008z"
           id="path7" /><path
           fill="#7fc2dc"
           stroke="#323232"
           stroke-miterlimit="10"
           d="M400.818,377.008c79.37,39.685,128.579,96.038,128.579,158.74     c0,120.642-183.742,218.268-410.343,218.268L-0.001,595.276l119.055-158.74C228.188,436.534,327.401,413.914,400.818,377.008z"
           id="path9" /></g><g
         id="Слой_1__x28_копия_x29_"
         display="inline"><path
           fill="#248bb8"
           stroke="#323232"
           stroke-miterlimit="10"
           d="M371.199,364.508C276.455,327.601,140.69,317.48-0.146,317.48     l153.639-158.74L-0.146-0.001c292.426,0,529.542,97.625,529.542,218.268v317.48C529.908,473.045,473.625,404.193,371.199,364.508     z"
           id="path12" /><path
           fill="#7fc2dc"
           stroke="#323232"
           stroke-miterlimit="10"
           d="M400.818,377.008c79.37,39.685,128.579,96.038,128.579,158.74     c0,120.642-183.742,218.268-410.343,218.268L-0.001,595.276l119.055-158.74C228.188,436.534,327.401,413.914,400.818,377.008z"
           id="path14" /></g><g
         id="Слой_1__x28_копия2_x29_"
         display="inline"><path
           fill="#248bb8"
           stroke="#323232"
           stroke-miterlimit="10"
           d="M371.199,364.508C276.455,327.601,140.69,317.48-0.146,317.48     l119.534-157.879L0.854,0.999c292.426,0,528.542,96.625,528.542,217.268v317.48C529.908,473.045,473.625,404.193,371.199,364.508     z"
           id="path17" /><path
           fill="#7fc2dc"
           stroke="#323232"
           stroke-miterlimit="10"
           d="M400.818,377.008c79.37,39.685,128.579,96.038,128.579,158.74     c0,120.642-183.742,218.268-410.343,218.268L-0.001,595.276l119.055-158.74C228.188,436.534,327.401,413.914,400.818,377.008z"
           id="path19" /></g></g><g
       id="Слой_1_копия_2"><g
         id="Слой_1_5_"
         display="inline"><path
           fill="#248bb8"
           stroke="#323232"
           stroke-miterlimit="10"
           d="M400.818,377.008c-73.417-36.907-172.63-59.528-281.764-59.528     l119.055-158.74L119.054-0.001c226.601,0,410.343,97.625,410.343,218.268v317.48     C529.794,473.045,480.188,416.693,400.818,377.008z"
           id="path23" /><path
           fill="#7fc2dc"
           stroke="#323232"
           stroke-miterlimit="10"
           d="M400.818,377.008c79.37,39.685,128.579,96.038,128.579,158.74     c0,120.642-183.742,218.268-410.343,218.268L-0.001,595.276l119.055-158.74C228.188,436.534,327.401,413.914,400.818,377.008z"
           id="path25" /></g><g
         id="Слой_1__x28_копия_x29__3_"
         display="inline"><path
           fill="#248bb8"
           stroke="#323232"
           stroke-miterlimit="10"
           d="M371.199,364.508C276.455,327.601,140.69,317.48-0.146,317.48     l153.639-158.74L-0.146-0.001c292.426,0,529.542,97.625,529.542,218.268v317.48C529.908,473.045,473.625,404.193,371.199,364.508     z"
           id="path28" /><path
           fill="#7fc2dc"
           stroke="#323232"
           stroke-miterlimit="10"
           d="M400.818,377.008c79.37,39.685,128.579,96.038,128.579,158.74     c0,120.642-183.742,218.268-410.343,218.268L-0.001,595.276l119.055-158.74C228.188,436.534,327.401,413.914,400.818,377.008z"
           id="path30" /></g><g
         id="Слой_1__x28_копия2_x29__4_"
         display="inline"><path
           fill="#248bb8"
           stroke="#323232"
           stroke-miterlimit="10"
           d="M371.199,364.508C276.455,327.601,140.69,305.48-0.146,305.48     l119.534-148.879L0.854,0.999c292.426,0,528.542,96.625,528.542,217.268v317.48C529.908,473.045,473.625,404.193,371.199,364.508     z"
           id="path33" /><path
           fill="#7fc2dc"
           stroke="#323232"
           stroke-miterlimit="10"
           d="M400.818,377.008c79.37,39.685,128.579,96.038,128.579,158.74     c0,120.642-183.742,218.268-410.343,218.268L-0.001,609.276l119.055-143.74C264.627,459.508,339.199,415.508,400.818,377.008z"
           id="path35" /></g></g><g
       id="Слой_1_копия_3"><g
         id="Слой_1_4_"
         display="inline"><path
           fill="#248bb8"
           stroke="#323232"
           stroke-miterlimit="10"
           d="M400.818,377.008c-73.417-36.907-172.63-59.528-281.764-59.528     l119.055-158.74L119.054-0.001c226.601,0,410.343,97.625,410.343,218.268v317.48     C529.794,473.045,480.188,416.693,400.818,377.008z"
           id="path39" /><path
           fill="#7fc2dc"
           stroke="#323232"
           stroke-miterlimit="10"
           d="M400.818,377.008c79.37,39.685,128.579,96.038,128.579,158.74     c0,120.642-183.742,218.268-410.343,218.268L-0.001,595.276l119.055-158.74C228.188,436.534,327.401,413.914,400.818,377.008z"
           id="path41" /></g><g
         id="Слой_1__x28_копия_x29__5_"
         display="inline"><path
           fill="#248bb8"
           stroke="#323232"
           stroke-miterlimit="10"
           d="M371.199,364.508C276.455,327.601,140.69,317.48-0.146,317.48     l153.639-158.74L-0.146-0.001c292.426,0,529.542,97.625,529.542,218.268v317.48C529.908,473.045,473.625,404.193,371.199,364.508     z"
           id="path44" /><path
           fill="#7fc2dc"
           stroke="#323232"
           stroke-miterlimit="10"
           d="M400.818,377.008c79.37,39.685,128.579,96.038,128.579,158.74     c0,120.642-183.742,218.268-410.343,218.268L-0.001,595.276l119.055-158.74C228.188,436.534,327.401,413.914,400.818,377.008z"
           id="path46" /></g><g
         id="Слой_1__x28_копия2_x29__5_"
         display="inline"><path
           fill="#248bb8"
           stroke="#323232"
           stroke-miterlimit="10"
           d="M371.199,364.508C276.455,327.601,140.69,305.48-0.146,305.48     l119.534-148.879L0.854,0.999c292.426,0,528.542,96.625,528.542,217.268v317.48C529.908,473.045,473.625,404.193,371.199,364.508     z"
           id="path49" /><path
           fill="#7fc2dc"
           stroke="#323232"
           stroke-miterlimit="10"
           d="M-281.828,377.163     c-79.071-40.278-127.857-96.997-127.388-159.697C-408.314,96.827-223.847,0.578,2.748,2.273L120.717,147.9L0.59,290.745     C-145.024,295.685-219.923,339.126-281.828,377.163z"
           id="path51" /></g></g><g
       id="Слой_1__x28_копия_x29__2_"><g
         id="Слой_1_3_"
         display="inline"><path
           fill="#248bb8"
           stroke="#323232"
           stroke-miterlimit="10"
           d="M400.818,377.008c-73.417-36.907-172.63-59.528-281.764-59.528     l119.055-158.74L119.054-0.001c226.601,0,410.343,97.625,410.343,218.268v317.48     C529.794,473.045,480.188,416.693,400.818,377.008z"
           id="path55" /><path
           fill="#7fc2dc"
           stroke="#323232"
           stroke-miterlimit="10"
           d="M400.818,377.008c79.37,39.685,128.579,96.038,128.579,158.74     c0,120.642-183.742,218.268-410.343,218.268L-0.001,595.276l119.055-158.74C228.188,436.534,327.401,413.914,400.818,377.008z"
           id="path57" /></g><g
         id="Слой_1__x28_копия_x29__1_"
         display="inline"><path
           fill="#248bb8"
           stroke="#323232"
           stroke-miterlimit="10"
           d="M371.199,364.508C276.455,327.601,140.69,317.48-0.146,317.48     l153.639-158.74L-0.146-0.001c292.426,0,529.542,97.625,529.542,218.268v317.48C529.908,473.045,473.625,404.193,371.199,364.508     z"
           id="path60" /><path
           fill="#7fc2dc"
           stroke="#323232"
           stroke-miterlimit="10"
           d="M400.818,377.008c79.37,39.685,128.579,96.038,128.579,158.74     c0,120.642-183.742,218.268-410.343,218.268L-0.001,595.276l119.055-158.74C228.188,436.534,327.401,413.914,400.818,377.008z"
           id="path62" /></g><g
         id="Слой_1__x28_копия2_x29__1_"
         display="inline"><path
           fill="#248bb8"
           stroke="#323232"
           stroke-miterlimit="10"
           d="M371.199,364.508C276.455,327.601,140.69,317.48-0.146,317.48     l127.345-157.972L-0.146-0.001c292.426,0,529.542,97.625,529.542,218.268v317.48     C529.908,473.045,473.625,404.193,371.199,364.508z"
           id="path65" /><path
           fill="#7fc2dc"
           stroke="#323232"
           stroke-miterlimit="10"
           d="M400.818,377.008c79.37,39.685,128.579,96.038,128.579,158.74     c0,120.642-183.742,218.268-410.343,218.268L-0.001,595.276l119.055-158.74C228.188,436.534,327.401,413.914,400.818,377.008z"
           id="path67" /></g></g><g
       id="Слой_1__x28_копия3_x29_"><g
         id="Слой_1_6_"
         display="inline"><path
           fill="#248bb8"
           stroke="#323232"
           stroke-miterlimit="10"
           d="M400.818,377.008c-73.417-36.907-172.63-59.528-281.764-59.528     l119.055-158.74L119.054-0.001c226.601,0,410.343,97.625,410.343,218.268v317.48     C529.794,473.045,480.188,416.693,400.818,377.008z"
           id="path71" /><path
           fill="#7fc2dc"
           stroke="#323232"
           stroke-miterlimit="10"
           d="M400.818,377.008c79.37,39.685,128.579,96.038,128.579,158.74     c0,120.642-183.742,218.268-410.343,218.268L-0.001,595.276l119.055-158.74C228.188,436.534,327.401,413.914,400.818,377.008z"
           id="path73" /></g><g
         id="Слой_1__x28_копия_x29__7_"
         display="inline"><path
           fill="#248bb8"
           stroke="#323232"
           stroke-miterlimit="10"
           d="M371.199,364.508C276.455,327.601,140.69,317.48-0.146,317.48     l153.639-158.74L-0.146-0.001c292.426,0,529.542,97.625,529.542,218.268v317.48C529.908,473.045,473.625,404.193,371.199,364.508     z"
           id="path76" /><path
           fill="#7fc2dc"
           stroke="#323232"
           stroke-miterlimit="10"
           d="M400.818,377.008c79.37,39.685,128.579,96.038,128.579,158.74     c0,120.642-183.742,218.268-410.343,218.268L-0.001,595.276l119.055-158.74C228.188,436.534,327.401,413.914,400.818,377.008z"
           id="path78" /></g><g
         id="Слой_1__x28_копия2_x29__6_"
         display="inline"><path
           fill="#248bb8"
           stroke="#323232"
           stroke-miterlimit="10"
           d="M371.199,364.508C276.455,327.601,140.69,317.48-0.146,317.48     l127.345-157.972L-0.146-0.001c292.426,0,529.542,97.625,529.542,218.268v317.48     C529.908,473.045,473.625,404.193,371.199,364.508z"
           id="path81" /><path
           fill="#7fc2dc"
           stroke="#323232"
           stroke-miterlimit="10"
           d="M400.818,377.008c79.37,39.685,128.579,96.038,128.579,158.74     c0,120.642-183.742,218.268-410.343,218.268L-0.001,614.276l119.055-141.74C233.199,464.508,359.199,425.508,400.818,377.008z"
           id="path83" /></g></g><g
       id="Слой_1__x28_копия4_x29_"><g
         id="Слой_1_7_"
         display="inline"><path
           fill="#248bb8"
           stroke="#323232"
           stroke-miterlimit="10"
           d="M400.818,377.008c-73.417-36.907-172.63-59.528-281.764-59.528     l119.055-158.74L119.054-0.001c226.601,0,410.343,97.625,410.343,218.268v317.48     C529.794,473.045,480.188,416.693,400.818,377.008z"
           id="path87" /><path
           fill="#7fc2dc"
           stroke="#323232"
           stroke-miterlimit="10"
           d="M400.818,377.008c79.37,39.685,128.579,96.038,128.579,158.74     c0,120.642-183.742,218.268-410.343,218.268L-0.001,595.276l119.055-158.74C228.188,436.534,327.401,413.914,400.818,377.008z"
           id="path89" /></g><g
         id="Слой_1__x28_копия_x29__6_"
         display="inline"><path
           fill="#248bb8"
           stroke="#323232"
           stroke-miterlimit="10"
           d="M371.199,364.508C276.455,327.601,140.69,317.48-0.146,317.48     l153.639-158.74L-0.146-0.001c292.426,0,529.542,97.625,529.542,218.268v317.48C529.908,473.045,473.625,404.193,371.199,364.508     z"
           id="path92" /><path
           fill="#7fc2dc"
           stroke="#323232"
           stroke-miterlimit="10"
           d="M400.818,377.008c79.37,39.685,128.579,96.038,128.579,158.74     c0,120.642-183.742,218.268-410.343,218.268L-0.001,595.276l119.055-158.74C228.188,436.534,327.401,413.914,400.818,377.008z"
           id="path94" /></g><g
         id="Слой_1__x28_копия2_x29__7_"
         display="inline"><path
           fill="#248bb8"
           stroke="#323232"
           stroke-miterlimit="10"
           d="M371.199,364.508C276.455,327.601,140.69,317.48-0.146,317.48     l127.345-157.972L-0.146-0.001c292.426,0,529.542,97.625,529.542,218.268v317.48     C529.908,473.045,473.625,404.193,371.199,364.508z"
           id="path97" /><path
           fill="#7fc2dc"
           d="M400.818,377.008c79.37,39.685,128.579,96.038,128.579,158.74c0,120.642-196.742,218.268-423.343,218.268     L-0.001,614.276l105.055-140.74C219.199,465.508,359.199,425.508,400.818,377.008z"
           id="path99" /></g></g><g
       id="Слой_1__x28_копия6_x29_"><g
         id="Слой_1_8_"
         display="inline"><path
           fill="#248bb8"
           stroke="#323232"
           stroke-miterlimit="10"
           d="M400.818,377.008c-73.417-36.907-172.63-59.528-281.764-59.528     l119.055-158.74L119.054-0.001c226.601,0,410.343,97.625,410.343,218.268v317.48     C529.794,473.045,480.188,416.693,400.818,377.008z"
           id="path103" /><path
           fill="#7fc2dc"
           stroke="#323232"
           stroke-miterlimit="10"
           d="M400.818,377.008c79.37,39.685,128.579,96.038,128.579,158.74     c0,120.642-183.742,218.268-410.343,218.268L-0.001,595.276l119.055-158.74C228.188,436.534,327.401,413.914,400.818,377.008z"
           id="path105" /></g><g
         id="Слой_1__x28_копия_x29__8_"
         display="inline"><path
           fill="#248bb8"
           stroke="#323232"
           stroke-miterlimit="10"
           d="M371.199,364.508C276.455,327.601,140.69,317.48-0.146,317.48     l153.639-158.74L-0.146-0.001c292.426,0,529.542,97.625,529.542,218.268v317.48C529.908,473.045,473.625,404.193,371.199,364.508     z"
           id="path108" /><path
           fill="#7fc2dc"
           stroke="#323232"
           stroke-miterlimit="10"
           d="M400.818,377.008c79.37,39.685,128.579,96.038,128.579,158.74     c0,120.642-183.742,218.268-410.343,218.268L-0.001,595.276l119.055-158.74C228.188,436.534,327.401,413.914,400.818,377.008z"
           id="path110" /></g><g
         id="Слой_1__x28_копия2_x29__3_"
         display="inline"><path
           fill="#248bb8"
           d="M371.199,364.508c-94.744-36.907-229.832-84.02-370.668-84.02L106.13,140.155L-0.146-0.001     c292.426,0,529.542,97.625,529.542,218.268v317.48C529.908,473.045,473.625,404.193,371.199,364.508z"
           id="path113" /><path
           fill="#7fc2dc"
           d="M400.818,377.008c79.37,39.685,128.579,96.038,128.579,158.74c0,120.642-196.742,218.268-423.343,218.268     L-0.001,614.276l105.055-140.74C219.199,465.508,359.199,425.508,400.818,377.008z"
           id="path115" /></g></g><g
       id="Слой_1__x28_копия7_x29_"><g
         id="Слой_1_9_"
         display="inline"><path
           fill="#248bb8"
           stroke="#323232"
           stroke-miterlimit="10"
           d="M400.818,377.008c-73.417-36.907-172.63-59.528-281.764-59.528     l119.055-158.74L119.054-0.001c226.601,0,410.343,97.625,410.343,218.268v317.48     C529.794,473.045,480.188,416.693,400.818,377.008z"
           id="path119" /><path
           fill="#7fc2dc"
           stroke="#323232"
           stroke-miterlimit="10"
           d="M400.818,377.008c79.37,39.685,128.579,96.038,128.579,158.74     c0,120.642-183.742,218.268-410.343,218.268L-0.001,595.276l119.055-158.74C228.188,436.534,327.401,413.914,400.818,377.008z"
           id="path121" /></g><g
         id="Слой_1__x28_копия_x29__9_"
         display="inline"><path
           fill="#248bb8"
           stroke="#323232"
           stroke-miterlimit="10"
           d="M371.199,364.508C276.455,327.601,140.69,317.48-0.146,317.48     l153.639-158.74L-0.146-0.001c292.426,0,529.542,97.625,529.542,218.268v317.48C529.908,473.045,473.625,404.193,371.199,364.508     z"
           id="path124" /><path
           fill="#7fc2dc"
           stroke="#323232"
           stroke-miterlimit="10"
           d="M400.818,377.008c79.37,39.685,128.579,96.038,128.579,158.74     c0,120.642-183.742,218.268-410.343,218.268L-0.001,595.276l119.055-158.74C228.188,436.534,327.401,413.914,400.818,377.008z"
           id="path126" /></g><g
         id="Слой_1__x28_копия2_x29__8_"
         display="inline"><path
           fill="#248bb8"
           d="M0.531,280.488L105.13,140.155L-0.146-0.001c292.426,0,529.542,97.625,529.542,218.268v317.48     C531.866,461.508,437.199,317.174,0.531,280.488z"
           id="path129" /><path
           fill="#7fc2dc"
           d="M400.818,377.008c79.37,39.685,128.579,96.038,128.579,158.74c0,120.642-196.742,218.268-423.343,218.268     L0.999,614.276l104.055-140.74C219.199,465.508,359.199,425.508,400.818,377.008z"
           id="path131" /></g></g><g
       id="Слой_1__x28_копия8_x29_"
       display="inline"><g
         id="Слой_1_10_"
         display="none"><path
           display="inline"
           fill="#248bb8"
           stroke="#323232"
           stroke-miterlimit="10"
           d="M400.818,377.008     c-73.417-36.907-172.63-59.528-281.764-59.528l119.055-158.74L119.054-0.001c226.601,0,410.343,97.625,410.343,218.268v317.48     C529.794,473.045,480.188,416.693,400.818,377.008z"
           id="path135" /><path
           display="inline"
           fill="#7fc2dc"
           stroke="#323232"
           stroke-miterlimit="10"
           d="M400.818,377.008     c79.37,39.685,128.579,96.038,128.579,158.74c0,120.642-183.742,218.268-410.343,218.268L-0.001,595.276l119.055-158.74     C228.188,436.534,327.401,413.914,400.818,377.008z"
           id="path137" /></g><g
         id="Слой_1__x28_копия_x29__10_"
         display="none"><path
           display="inline"
           fill="#248bb8"
           stroke="#323232"
           stroke-miterlimit="10"
           d="M371.199,364.508     C276.455,327.601,140.69,317.48-0.146,317.48l153.639-158.74L-0.146-0.001c292.426,0,529.542,97.625,529.542,218.268v317.48     C529.908,473.045,473.625,404.193,371.199,364.508z"
           id="path140" /><path
           display="inline"
           fill="#7fc2dc"
           stroke="#323232"
           stroke-miterlimit="10"
           d="M400.818,377.008     c79.37,39.685,128.579,96.038,128.579,158.74c0,120.642-183.742,218.268-410.343,218.268L-0.001,595.276l119.055-158.74     C228.188,436.534,327.401,413.914,400.818,377.008z"
           id="path142" /></g><g
         id="Слой_1__x28_копия2_x29__9_"><path
           fill="#7fc2dc"
           d="M401.818,374.008c79.37,39.685,127.579,99.038,127.579,161.74c0,120.642-196.742,218.268-423.343,218.268     L0.999,614.276l104.055-140.74C219.199,465.508,360.199,422.508,401.818,374.008z"
           id="path145" /><path
           fill="#248bb8"
           d="M0.531,280.488L105.13,140.155L-0.146-0.001c292.426,0,529.542,97.625,529.542,218.268v317.48     C529.42,478.508,461.199,309.508,0.531,280.488z"
           id="path147" /></g></g><g
       id="Слой_1__x28_копия5_x29_"><g
         id="Слой_1_11_"
         display="inline"><path
           fill="#248bb8"
           stroke="#323232"
           stroke-miterlimit="10"
           d="M400.818,377.008c-73.417-36.907-172.63-59.528-281.764-59.528     l119.055-158.74L119.054-0.001c226.601,0,410.343,97.625,410.343,218.268v317.48     C529.794,473.045,480.188,416.693,400.818,377.008z"
           id="path151" /><path
           fill="#7fc2dc"
           stroke="#323232"
           stroke-miterlimit="10"
           d="M400.818,377.008c79.37,39.685,128.579,96.038,128.579,158.74     c0,120.642-183.742,218.268-410.343,218.268L-0.001,595.276l119.055-158.74C228.188,436.534,327.401,413.914,400.818,377.008z"
           id="path153" /></g><g
         id="Слой_1__x28_копия_x29__4_"
         display="inline"><path
           fill="#248bb8"
           stroke="#323232"
           stroke-miterlimit="10"
           d="M371.199,364.508C276.455,327.601,140.69,317.48-0.146,317.48     l153.639-158.74L-0.146-0.001c292.426,0,529.542,97.625,529.542,218.268v317.48C529.908,473.045,473.625,404.193,371.199,364.508     z"
           id="path156" /><path
           fill="#7fc2dc"
           stroke="#323232"
           stroke-miterlimit="10"
           d="M400.818,377.008c79.37,39.685,128.579,96.038,128.579,158.74     c0,120.642-183.742,218.268-410.343,218.268L-0.001,595.276l119.055-158.74C228.188,436.534,327.401,413.914,400.818,377.008z"
           id="path158" /></g><g
         id="Слой_1__x28_копия2_x29__2_"
         display="inline"><path
           fill="#7fc2dc"
           d="M-295.604,375.87c-79.216-39.992-128.206-96.535-127.964-159.236     C-423.101,95.993-225.983-0.871,0.616,0.006L106.13,140.155L0.531,280.488C-113.644,288.074-253.798,327.532-295.604,375.87z"
           id="path161" /></g></g><g
       id="Слой_11"
       display="inline" /><g
       id="Слой_7"><polygon
         display="inline"
         fill="#B5CDD3"
         stroke="#323232"
         stroke-miterlimit="10"
         points="-2134.167,473.185 -2239.479,613.6     -2134.167,754.015 8.215,754.015 -97.096,613.6 8.215,473.185   "
         id="polygon165" /></g><g
       id="Слой_7__x28_копия_x29_"><polygon
         display="inline"
         fill="#B5CDD3"
         stroke="#323232"
         stroke-miterlimit="10"
         points="-2052.167,473.185 -2157.479,613.6     -2052.167,754.015 90.215,754.015 -15.096,613.6 90.215,473.185   "
         id="polygon168" /></g><g
       id="Слой_10"><image
         sodipodi:absref="/home/mogo/w/cb/carbook.pro/source/theme/images/funel/4096C24.jpg"
         xlink:href="4096C24.jpg"
         id="image171"
         transform="matrix(8.9949 0 0 8.9949 -1797.3147 -98.7108)"
         height="108"
         width="264"
         enable-background="new    "
         opacity="0.7"
         overflow="visible"
         display="inline" /></g></g><g
     id="Слой_1__x28_копия_x29__22_"
     display="none"><g
       id="Слой_1_22_"><g
         id="Слой_1_23_"
         display="inline"><path
           fill="#248bb8"
           stroke="#323232"
           stroke-miterlimit="10"
           d="M400.818,377.008c-73.417-36.907-172.63-59.528-281.764-59.528     l119.055-158.74L119.054-0.001c226.601,0,410.343,97.625,410.343,218.268v317.48     C529.794,473.045,480.188,416.693,400.818,377.008z"
           id="path176" /><path
           fill="#7fc2dc"
           stroke="#323232"
           stroke-miterlimit="10"
           d="M400.818,377.008c79.37,39.685,128.579,96.038,128.579,158.74     c0,120.642-183.742,218.268-410.343,218.268L-0.001,595.276l119.055-158.74C228.188,436.534,327.401,413.914,400.818,377.008z"
           id="path178" /></g><g
         id="Слой_1__x28_копия_x29__21_"
         display="inline"><path
           fill="#248bb8"
           stroke="#323232"
           stroke-miterlimit="10"
           d="M371.199,364.508C276.455,327.601,140.69,317.48-0.146,317.48     l153.639-158.74L-0.146-0.001c292.426,0,529.542,97.625,529.542,218.268v317.48C529.908,473.045,473.625,404.193,371.199,364.508     z"
           id="path181" /><path
           fill="#7fc2dc"
           stroke="#323232"
           stroke-miterlimit="10"
           d="M400.818,377.008c79.37,39.685,128.579,96.038,128.579,158.74     c0,120.642-183.742,218.268-410.343,218.268L-0.001,595.276l119.055-158.74C228.188,436.534,327.401,413.914,400.818,377.008z"
           id="path183" /></g><g
         id="Слой_1__x28_копия2_x29__19_"
         display="inline"><path
           fill="#248bb8"
           stroke="#323232"
           stroke-miterlimit="10"
           d="M371.199,364.508C276.455,327.601,140.69,317.48-0.146,317.48     l119.534-157.879L0.854,0.999c292.426,0,528.542,96.625,528.542,217.268v317.48C529.908,473.045,473.625,404.193,371.199,364.508     z"
           id="path186" /><path
           fill="#7fc2dc"
           stroke="#323232"
           stroke-miterlimit="10"
           d="M400.818,377.008c79.37,39.685,128.579,96.038,128.579,158.74     c0,120.642-183.742,218.268-410.343,218.268L-0.001,595.276l119.055-158.74C228.188,436.534,327.401,413.914,400.818,377.008z"
           id="path188" /></g></g><g
       id="Слой_1_копия_2_1_"><g
         id="Слой_1_21_"
         display="inline"><path
           fill="#248bb8"
           stroke="#323232"
           stroke-miterlimit="10"
           d="M400.818,377.008c-73.417-36.907-172.63-59.528-281.764-59.528     l119.055-158.74L119.054-0.001c226.601,0,410.343,97.625,410.343,218.268v317.48     C529.794,473.045,480.188,416.693,400.818,377.008z"
           id="path192" /><path
           fill="#7fc2dc"
           stroke="#323232"
           stroke-miterlimit="10"
           d="M400.818,377.008c79.37,39.685,128.579,96.038,128.579,158.74     c0,120.642-183.742,218.268-410.343,218.268L-0.001,595.276l119.055-158.74C228.188,436.534,327.401,413.914,400.818,377.008z"
           id="path194" /></g><g
         id="Слой_1__x28_копия_x29__20_"
         display="inline"><path
           fill="#248bb8"
           stroke="#323232"
           stroke-miterlimit="10"
           d="M371.199,364.508C276.455,327.601,140.69,317.48-0.146,317.48     l153.639-158.74L-0.146-0.001c292.426,0,529.542,97.625,529.542,218.268v317.48C529.908,473.045,473.625,404.193,371.199,364.508     z"
           id="path197" /><path
           fill="#7fc2dc"
           stroke="#323232"
           stroke-miterlimit="10"
           d="M400.818,377.008c79.37,39.685,128.579,96.038,128.579,158.74     c0,120.642-183.742,218.268-410.343,218.268L-0.001,595.276l119.055-158.74C228.188,436.534,327.401,413.914,400.818,377.008z"
           id="path199" /></g><g
         id="Слой_1__x28_копия2_x29__18_"
         display="inline"><path
           fill="#248bb8"
           stroke="#323232"
           stroke-miterlimit="10"
           d="M371.199,364.508C276.455,327.601,140.69,305.48-0.146,305.48     l119.534-148.879L0.854,0.999c292.426,0,528.542,96.625,528.542,217.268v317.48C529.908,473.045,473.625,404.193,371.199,364.508     z"
           id="path202" /><path
           fill="#7fc2dc"
           stroke="#323232"
           stroke-miterlimit="10"
           d="M400.818,377.008c79.37,39.685,128.579,96.038,128.579,158.74     c0,120.642-183.742,218.268-410.343,218.268L-0.001,609.276l119.055-143.74C264.627,459.508,339.199,415.508,400.818,377.008z"
           id="path204" /></g></g><g
       id="Слой_1_копия_3_1_"><g
         id="Слой_1_20_"
         display="inline"><path
           fill="#248bb8"
           stroke="#323232"
           stroke-miterlimit="10"
           d="M400.818,377.008c-73.417-36.907-172.63-59.528-281.764-59.528     l119.055-158.74L119.054-0.001c226.601,0,410.343,97.625,410.343,218.268v317.48     C529.794,473.045,480.188,416.693,400.818,377.008z"
           id="path208" /><path
           fill="#7fc2dc"
           stroke="#323232"
           stroke-miterlimit="10"
           d="M400.818,377.008c79.37,39.685,128.579,96.038,128.579,158.74     c0,120.642-183.742,218.268-410.343,218.268L-0.001,595.276l119.055-158.74C228.188,436.534,327.401,413.914,400.818,377.008z"
           id="path210" /></g><g
         id="Слой_1__x28_копия_x29__19_"
         display="inline"><path
           fill="#248bb8"
           stroke="#323232"
           stroke-miterlimit="10"
           d="M371.199,364.508C276.455,327.601,140.69,317.48-0.146,317.48     l153.639-158.74L-0.146-0.001c292.426,0,529.542,97.625,529.542,218.268v317.48C529.908,473.045,473.625,404.193,371.199,364.508     z"
           id="path213" /><path
           fill="#7fc2dc"
           stroke="#323232"
           stroke-miterlimit="10"
           d="M400.818,377.008c79.37,39.685,128.579,96.038,128.579,158.74     c0,120.642-183.742,218.268-410.343,218.268L-0.001,595.276l119.055-158.74C228.188,436.534,327.401,413.914,400.818,377.008z"
           id="path215" /></g><g
         id="Слой_1__x28_копия2_x29__17_"
         display="inline"><path
           fill="#248bb8"
           stroke="#323232"
           stroke-miterlimit="10"
           d="M371.199,364.508C276.455,327.601,140.69,305.48-0.146,305.48     l119.534-148.879L0.854,0.999c292.426,0,528.542,96.625,528.542,217.268v317.48C529.908,473.045,473.625,404.193,371.199,364.508     z"
           id="path218" /><path
           fill="#7fc2dc"
           stroke="#323232"
           stroke-miterlimit="10"
           d="M-281.828,377.163     c-79.071-40.278-127.857-96.997-127.388-159.697C-408.314,96.827-223.847,0.578,2.748,2.273L120.717,147.9L0.59,290.745     C-145.024,295.685-219.923,339.126-281.828,377.163z"
           id="path220" /></g></g><g
       id="Слой_1__x28_копия_x29__17_"><g
         id="Слой_1_19_"
         display="inline"><path
           fill="#248bb8"
           stroke="#323232"
           stroke-miterlimit="10"
           d="M400.818,377.008c-73.417-36.907-172.63-59.528-281.764-59.528     l119.055-158.74L119.054-0.001c226.601,0,410.343,97.625,410.343,218.268v317.48     C529.794,473.045,480.188,416.693,400.818,377.008z"
           id="path224" /><path
           fill="#7fc2dc"
           stroke="#323232"
           stroke-miterlimit="10"
           d="M400.818,377.008c79.37,39.685,128.579,96.038,128.579,158.74     c0,120.642-183.742,218.268-410.343,218.268L-0.001,595.276l119.055-158.74C228.188,436.534,327.401,413.914,400.818,377.008z"
           id="path226" /></g><g
         id="Слой_1__x28_копия_x29__18_"
         display="inline"><path
           fill="#248bb8"
           stroke="#323232"
           stroke-miterlimit="10"
           d="M371.199,364.508C276.455,327.601,140.69,317.48-0.146,317.48     l153.639-158.74L-0.146-0.001c292.426,0,529.542,97.625,529.542,218.268v317.48C529.908,473.045,473.625,404.193,371.199,364.508     z"
           id="path229" /><path
           fill="#7fc2dc"
           stroke="#323232"
           stroke-miterlimit="10"
           d="M400.818,377.008c79.37,39.685,128.579,96.038,128.579,158.74     c0,120.642-183.742,218.268-410.343,218.268L-0.001,595.276l119.055-158.74C228.188,436.534,327.401,413.914,400.818,377.008z"
           id="path231" /></g><g
         id="Слой_1__x28_копия2_x29__16_"
         display="inline"><path
           fill="#248bb8"
           stroke="#323232"
           stroke-miterlimit="10"
           d="M371.199,364.508C276.455,327.601,140.69,317.48-0.146,317.48     l127.345-157.972L-0.146-0.001c292.426,0,529.542,97.625,529.542,218.268v317.48     C529.908,473.045,473.625,404.193,371.199,364.508z"
           id="path234" /><path
           fill="#7fc2dc"
           stroke="#323232"
           stroke-miterlimit="10"
           d="M400.818,377.008c79.37,39.685,128.579,96.038,128.579,158.74     c0,120.642-183.742,218.268-410.343,218.268L-0.001,595.276l119.055-158.74C228.188,436.534,327.401,413.914,400.818,377.008z"
           id="path236" /></g></g><g
       id="Слой_1__x28_копия3_x29__1_"><g
         id="Слой_1_18_"
         display="inline"><path
           fill="#248bb8"
           stroke="#323232"
           stroke-miterlimit="10"
           d="M400.818,377.008c-73.417-36.907-172.63-59.528-281.764-59.528     l119.055-158.74L119.054-0.001c226.601,0,410.343,97.625,410.343,218.268v317.48     C529.794,473.045,480.188,416.693,400.818,377.008z"
           id="path240" /><path
           fill="#7fc2dc"
           stroke="#323232"
           stroke-miterlimit="10"
           d="M400.818,377.008c79.37,39.685,128.579,96.038,128.579,158.74     c0,120.642-183.742,218.268-410.343,218.268L-0.001,595.276l119.055-158.74C228.188,436.534,327.401,413.914,400.818,377.008z"
           id="path242" /></g><g
         id="Слой_1__x28_копия_x29__16_"
         display="inline"><path
           fill="#248bb8"
           stroke="#323232"
           stroke-miterlimit="10"
           d="M371.199,364.508C276.455,327.601,140.69,317.48-0.146,317.48     l153.639-158.74L-0.146-0.001c292.426,0,529.542,97.625,529.542,218.268v317.48C529.908,473.045,473.625,404.193,371.199,364.508     z"
           id="path245" /><path
           fill="#7fc2dc"
           stroke="#323232"
           stroke-miterlimit="10"
           d="M400.818,377.008c79.37,39.685,128.579,96.038,128.579,158.74     c0,120.642-183.742,218.268-410.343,218.268L-0.001,595.276l119.055-158.74C228.188,436.534,327.401,413.914,400.818,377.008z"
           id="path247" /></g><g
         id="Слой_1__x28_копия2_x29__15_"
         display="inline"><path
           fill="#248bb8"
           stroke="#323232"
           stroke-miterlimit="10"
           d="M371.199,364.508C276.455,327.601,140.69,317.48-0.146,317.48     l127.345-157.972L-0.146-0.001c292.426,0,529.542,97.625,529.542,218.268v317.48     C529.908,473.045,473.625,404.193,371.199,364.508z"
           id="path250" /><path
           fill="#7fc2dc"
           stroke="#323232"
           stroke-miterlimit="10"
           d="M400.818,377.008c79.37,39.685,128.579,96.038,128.579,158.74     c0,120.642-183.742,218.268-410.343,218.268L-0.001,614.276l119.055-141.74C233.199,464.508,359.199,425.508,400.818,377.008z"
           id="path252" /></g></g><g
       id="Слой_1__x28_копия4_x29__1_"><g
         id="Слой_1_17_"
         display="inline"><path
           fill="#248bb8"
           stroke="#323232"
           stroke-miterlimit="10"
           d="M400.818,377.008c-73.417-36.907-172.63-59.528-281.764-59.528     l119.055-158.74L119.054-0.001c226.601,0,410.343,97.625,410.343,218.268v317.48     C529.794,473.045,480.188,416.693,400.818,377.008z"
           id="path256" /><path
           fill="#7fc2dc"
           stroke="#323232"
           stroke-miterlimit="10"
           d="M400.818,377.008c79.37,39.685,128.579,96.038,128.579,158.74     c0,120.642-183.742,218.268-410.343,218.268L-0.001,595.276l119.055-158.74C228.188,436.534,327.401,413.914,400.818,377.008z"
           id="path258" /></g><g
         id="Слой_1__x28_копия_x29__15_"
         display="inline"><path
           fill="#248bb8"
           stroke="#323232"
           stroke-miterlimit="10"
           d="M371.199,364.508C276.455,327.601,140.69,317.48-0.146,317.48     l153.639-158.74L-0.146-0.001c292.426,0,529.542,97.625,529.542,218.268v317.48C529.908,473.045,473.625,404.193,371.199,364.508     z"
           id="path261" /><path
           fill="#7fc2dc"
           stroke="#323232"
           stroke-miterlimit="10"
           d="M400.818,377.008c79.37,39.685,128.579,96.038,128.579,158.74     c0,120.642-183.742,218.268-410.343,218.268L-0.001,595.276l119.055-158.74C228.188,436.534,327.401,413.914,400.818,377.008z"
           id="path263" /></g><g
         id="Слой_1__x28_копия2_x29__14_"
         display="inline"><path
           fill="#248bb8"
           stroke="#323232"
           stroke-miterlimit="10"
           d="M371.199,364.508C276.455,327.601,140.69,317.48-0.146,317.48     l127.345-157.972L-0.146-0.001c292.426,0,529.542,97.625,529.542,218.268v317.48     C529.908,473.045,473.625,404.193,371.199,364.508z"
           id="path266" /><path
           fill="#7fc2dc"
           d="M400.818,377.008c79.37,39.685,128.579,96.038,128.579,158.74c0,120.642-196.742,218.268-423.343,218.268     L-0.001,614.276l105.055-140.74C219.199,465.508,359.199,425.508,400.818,377.008z"
           id="path268" /></g></g><g
       id="Слой_1__x28_копия6_x29__1_"><g
         id="Слой_1_16_"
         display="inline"><path
           fill="#248bb8"
           stroke="#323232"
           stroke-miterlimit="10"
           d="M400.818,377.008c-73.417-36.907-172.63-59.528-281.764-59.528     l119.055-158.74L119.054-0.001c226.601,0,410.343,97.625,410.343,218.268v317.48     C529.794,473.045,480.188,416.693,400.818,377.008z"
           id="path272" /><path
           fill="#7fc2dc"
           stroke="#323232"
           stroke-miterlimit="10"
           d="M400.818,377.008c79.37,39.685,128.579,96.038,128.579,158.74     c0,120.642-183.742,218.268-410.343,218.268L-0.001,595.276l119.055-158.74C228.188,436.534,327.401,413.914,400.818,377.008z"
           id="path274" /></g><g
         id="Слой_1__x28_копия_x29__14_"
         display="inline"><path
           fill="#248bb8"
           stroke="#323232"
           stroke-miterlimit="10"
           d="M371.199,364.508C276.455,327.601,140.69,317.48-0.146,317.48     l153.639-158.74L-0.146-0.001c292.426,0,529.542,97.625,529.542,218.268v317.48C529.908,473.045,473.625,404.193,371.199,364.508     z"
           id="path277" /><path
           fill="#7fc2dc"
           stroke="#323232"
           stroke-miterlimit="10"
           d="M400.818,377.008c79.37,39.685,128.579,96.038,128.579,158.74     c0,120.642-183.742,218.268-410.343,218.268L-0.001,595.276l119.055-158.74C228.188,436.534,327.401,413.914,400.818,377.008z"
           id="path279" /></g><g
         id="Слой_1__x28_копия2_x29__13_"
         display="inline"><path
           fill="#248bb8"
           d="M371.199,364.508c-94.744-36.907-229.832-84.02-370.668-84.02L106.13,140.155L-0.146-0.001     c292.426,0,529.542,97.625,529.542,218.268v317.48C529.908,473.045,473.625,404.193,371.199,364.508z"
           id="path282" /><path
           fill="#7fc2dc"
           d="M400.818,377.008c79.37,39.685,128.579,96.038,128.579,158.74c0,120.642-196.742,218.268-423.343,218.268     L-0.001,614.276l105.055-140.74C219.199,465.508,359.199,425.508,400.818,377.008z"
           id="path284" /></g></g><g
       id="Слой_1__x28_копия7_x29__1_"><g
         id="Слой_1_15_"
         display="inline"><path
           fill="#248bb8"
           stroke="#323232"
           stroke-miterlimit="10"
           d="M400.818,377.008c-73.417-36.907-172.63-59.528-281.764-59.528     l119.055-158.74L119.054-0.001c226.601,0,410.343,97.625,410.343,218.268v317.48     C529.794,473.045,480.188,416.693,400.818,377.008z"
           id="path288" /><path
           fill="#7fc2dc"
           stroke="#323232"
           stroke-miterlimit="10"
           d="M400.818,377.008c79.37,39.685,128.579,96.038,128.579,158.74     c0,120.642-183.742,218.268-410.343,218.268L-0.001,595.276l119.055-158.74C228.188,436.534,327.401,413.914,400.818,377.008z"
           id="path290" /></g><g
         id="Слой_1__x28_копия_x29__13_"
         display="inline"><path
           fill="#248bb8"
           stroke="#323232"
           stroke-miterlimit="10"
           d="M371.199,364.508C276.455,327.601,140.69,317.48-0.146,317.48     l153.639-158.74L-0.146-0.001c292.426,0,529.542,97.625,529.542,218.268v317.48C529.908,473.045,473.625,404.193,371.199,364.508     z"
           id="path293" /><path
           fill="#7fc2dc"
           stroke="#323232"
           stroke-miterlimit="10"
           d="M400.818,377.008c79.37,39.685,128.579,96.038,128.579,158.74     c0,120.642-183.742,218.268-410.343,218.268L-0.001,595.276l119.055-158.74C228.188,436.534,327.401,413.914,400.818,377.008z"
           id="path295" /></g><g
         id="Слой_1__x28_копия2_x29__12_"
         display="inline"><path
           fill="#248bb8"
           d="M0.531,280.488L105.13,140.155L-0.146-0.001c292.426,0,529.542,97.625,529.542,218.268v317.48     C531.866,461.508,437.199,317.174,0.531,280.488z"
           id="path298" /><path
           fill="#7fc2dc"
           d="M400.818,377.008c79.37,39.685,128.579,96.038,128.579,158.74c0,120.642-196.742,218.268-423.343,218.268     L0.999,614.276l104.055-140.74C219.199,465.508,359.199,425.508,400.818,377.008z"
           id="path300" /></g></g><g
       id="Слой_1__x28_копия8_x29__1_"
       display="inline"><g
         id="Слой_1_14_"
         display="none"><path
           display="inline"
           fill="#248bb8"
           stroke="#323232"
           stroke-miterlimit="10"
           d="M129.435,377.007     c73.417,36.907,172.63,59.528,281.764,59.528l-119.055,158.74l119.055,158.741c-226.601,0-410.343-97.625-410.343-218.268     v-317.48C0.459,280.97,50.065,337.322,129.435,377.007z"
           id="path304" /><path
           display="inline"
           fill="#7fc2dc"
           stroke="#323232"
           stroke-miterlimit="10"
           d="M129.435,377.007     C50.065,337.322,0.856,280.969,0.856,218.267C0.856,97.625,184.598-0.001,411.199-0.001l119.055,158.74l-119.055,158.74     C302.065,317.481,202.852,340.101,129.435,377.007z"
           id="path306" /></g><g
         id="Слой_1__x28_копия_x29__12_"
         display="none"><path
           display="inline"
           fill="#248bb8"
           stroke="#323232"
           stroke-miterlimit="10"
           d="M159.054,389.507     c94.744,36.907,230.509,47.028,371.345,47.028L376.76,595.275l153.639,158.741c-292.426,0-529.542-97.625-529.542-218.268     v-317.48C0.345,280.97,56.628,349.822,159.054,389.507z"
           id="path309" /><path
           display="inline"
           fill="#7fc2dc"
           stroke="#323232"
           stroke-miterlimit="10"
           d="M129.435,377.007     C50.065,337.322,0.856,280.969,0.856,218.267C0.856,97.625,184.598-0.001,411.199-0.001l119.055,158.74l-119.055,158.74     C302.065,317.481,202.852,340.101,129.435,377.007z"
           id="path311" /></g><g
         id="Слой_1__x28_копия2_x29__11_"><path
           fill="#248bb8"
           d="M128.435,380.007C49.065,340.322,0.856,280.969,0.856,218.267C0.856,97.625,197.598-0.001,424.199-0.001     l105.055,139.74l-104.055,140.74C311.054,288.507,170.054,331.507,128.435,380.007z"
           id="path314" /><path
           fill="#30616D"
           d="M529.722,473.527L425.123,613.86l105.276,140.156c-292.426,0-529.542-97.625-529.542-218.268v-317.48     C0.833,275.507,69.054,444.507,529.722,473.527z"
           id="path316" /></g></g><g
       id="Слой_1__x28_копия5_x29__1_"><g
         id="Слой_1_13_"
         display="inline"><path
           fill="#248bb8"
           stroke="#323232"
           stroke-miterlimit="10"
           d="M400.818,377.008c-73.417-36.907-172.63-59.528-281.764-59.528     l119.055-158.74L119.054-0.001c226.601,0,410.343,97.625,410.343,218.268v317.48     C529.794,473.045,480.188,416.693,400.818,377.008z"
           id="path320" /><path
           fill="#7fc2dc"
           stroke="#323232"
           stroke-miterlimit="10"
           d="M400.818,377.008c79.37,39.685,128.579,96.038,128.579,158.74     c0,120.642-183.742,218.268-410.343,218.268L-0.001,595.276l119.055-158.74C228.188,436.534,327.401,413.914,400.818,377.008z"
           id="path322" /></g><g
         id="Слой_1__x28_копия_x29__11_"
         display="inline"><path
           fill="#248bb8"
           stroke="#323232"
           stroke-miterlimit="10"
           d="M371.199,364.508C276.455,327.601,140.69,317.48-0.146,317.48     l153.639-158.74L-0.146-0.001c292.426,0,529.542,97.625,529.542,218.268v317.48C529.908,473.045,473.625,404.193,371.199,364.508     z"
           id="path325" /><path
           fill="#7fc2dc"
           stroke="#323232"
           stroke-miterlimit="10"
           d="M400.818,377.008c79.37,39.685,128.579,96.038,128.579,158.74     c0,120.642-183.742,218.268-410.343,218.268L-0.001,595.276l119.055-158.74C228.188,436.534,327.401,413.914,400.818,377.008z"
           id="path327" /></g><g
         id="Слой_1__x28_копия2_x29__10_"
         display="inline"><path
           fill="#7fc2dc"
           d="M-295.604,375.87c-79.216-39.992-128.206-96.535-127.964-159.236     C-423.101,95.993-225.983-0.871,0.616,0.006L106.13,140.155L0.531,280.488C-113.644,288.074-253.798,327.532-295.604,375.87z"
           id="path330" /></g></g><g
       id="Слой_11_1_"
       display="inline" /><g
       id="Слой_7_1_"><polygon
         display="inline"
         fill="#B5CDD3"
         stroke="#323232"
         stroke-miterlimit="10"
         points="-2134.167,473.185 -2239.479,613.6     -2134.167,754.015 8.215,754.015 -97.096,613.6 8.215,473.185   "
         id="polygon334" /></g><g
       id="Слой_7__x28_копия_x29__1_"><polygon
         display="inline"
         fill="#B5CDD3"
         stroke="#323232"
         stroke-miterlimit="10"
         points="-2052.167,473.185 -2157.479,613.6     -2052.167,754.015 90.215,754.015 -15.096,613.6 90.215,473.185   "
         id="polygon337" /></g><g
       id="Слой_10_1_"><image
         sodipodi:absref="/home/mogo/w/cb/carbook.pro/source/theme/images/funel/4096C24.jpg"
         xlink:href="4096C24.jpg"
         id="image340"
         transform="matrix(8.9949 0 0 8.9949 -1797.3147 -98.7108)"
         height="108"
         width="264"
         enable-background="new    "
         opacity="0.7"
         overflow="visible"
         display="inline" /></g></g><g
     id="Слой_1__x28_копия2_x29__30_"><g
       id="Слой_1_32_"
       display="none"><g
         id="Слой_1_33_"
         display="inline"><path
           fill="#248bb8"
           stroke="#323232"
           stroke-miterlimit="10"
           d="M400.818,377.008c-73.417-36.907-172.63-59.528-281.764-59.528     l119.055-158.74L119.054-0.001c226.601,0,410.343,97.625,410.343,218.268v317.48     C529.794,473.045,480.188,416.693,400.818,377.008z"
           id="path345" /><path
           fill="#7fc2dc"
           stroke="#323232"
           stroke-miterlimit="10"
           d="M400.818,377.008c79.37,39.685,128.579,96.038,128.579,158.74     c0,120.642-183.742,218.268-410.343,218.268L-0.001,595.276l119.055-158.74C228.188,436.534,327.401,413.914,400.818,377.008z"
           id="path347" /></g><g
         id="Слой_1__x28_копия_x29__34_"
         display="inline"><path
           fill="#248bb8"
           stroke="#323232"
           stroke-miterlimit="10"
           d="M371.199,364.508C276.455,327.601,140.69,317.48-0.146,317.48     l153.639-158.74L-0.146-0.001c292.426,0,529.542,97.625,529.542,218.268v317.48C529.908,473.045,473.625,404.193,371.199,364.508     z"
           id="path350" /><path
           fill="#7fc2dc"
           stroke="#323232"
           stroke-miterlimit="10"
           d="M400.818,377.008c79.37,39.685,128.579,96.038,128.579,158.74     c0,120.642-183.742,218.268-410.343,218.268L-0.001,595.276l119.055-158.74C228.188,436.534,327.401,413.914,400.818,377.008z"
           id="path352" /></g><g
         id="Слой_1__x28_копия2_x29__29_"
         display="inline"><path
           fill="#248bb8"
           stroke="#323232"
           stroke-miterlimit="10"
           d="M371.199,364.508C276.455,327.601,140.69,317.48-0.146,317.48     l119.534-157.879L0.854,0.999c292.426,0,528.542,96.625,528.542,217.268v317.48C529.908,473.045,473.625,404.193,371.199,364.508     z"
           id="path355" /><path
           fill="#7fc2dc"
           stroke="#323232"
           stroke-miterlimit="10"
           d="M400.818,377.008c79.37,39.685,128.579,96.038,128.579,158.74     c0,120.642-183.742,218.268-410.343,218.268L-0.001,595.276l119.055-158.74C228.188,436.534,327.401,413.914,400.818,377.008z"
           id="path357" /></g></g><g
       id="Слой_1_копия_2_2_"
       display="none"><g
         id="Слой_1_31_"
         display="inline"><path
           fill="#248bb8"
           stroke="#323232"
           stroke-miterlimit="10"
           d="M400.818,377.008c-73.417-36.907-172.63-59.528-281.764-59.528     l119.055-158.74L119.054-0.001c226.601,0,410.343,97.625,410.343,218.268v317.48     C529.794,473.045,480.188,416.693,400.818,377.008z"
           id="path361" /><path
           fill="#7fc2dc"
           stroke="#323232"
           stroke-miterlimit="10"
           d="M400.818,377.008c79.37,39.685,128.579,96.038,128.579,158.74     c0,120.642-183.742,218.268-410.343,218.268L-0.001,595.276l119.055-158.74C228.188,436.534,327.401,413.914,400.818,377.008z"
           id="path363" /></g><g
         id="Слой_1__x28_копия_x29__33_"
         display="inline"><path
           fill="#248bb8"
           stroke="#323232"
           stroke-miterlimit="10"
           d="M371.199,364.508C276.455,327.601,140.69,317.48-0.146,317.48     l153.639-158.74L-0.146-0.001c292.426,0,529.542,97.625,529.542,218.268v317.48C529.908,473.045,473.625,404.193,371.199,364.508     z"
           id="path366" /><path
           fill="#7fc2dc"
           stroke="#323232"
           stroke-miterlimit="10"
           d="M400.818,377.008c79.37,39.685,128.579,96.038,128.579,158.74     c0,120.642-183.742,218.268-410.343,218.268L-0.001,595.276l119.055-158.74C228.188,436.534,327.401,413.914,400.818,377.008z"
           id="path368" /></g><g
         id="Слой_1__x28_копия2_x29__28_"
         display="inline"><path
           fill="#248bb8"
           stroke="#323232"
           stroke-miterlimit="10"
           d="M371.199,364.508C276.455,327.601,140.69,305.48-0.146,305.48     l119.534-148.879L0.854,0.999c292.426,0,528.542,96.625,528.542,217.268v317.48C529.908,473.045,473.625,404.193,371.199,364.508     z"
           id="path371" /><path
           fill="#7fc2dc"
           stroke="#323232"
           stroke-miterlimit="10"
           d="M400.818,377.008c79.37,39.685,128.579,96.038,128.579,158.74     c0,120.642-183.742,218.268-410.343,218.268L-0.001,609.276l119.055-143.74C264.627,459.508,339.199,415.508,400.818,377.008z"
           id="path373" /></g></g><g
       id="Слой_1_копия_3_2_"
       display="none"><g
         id="Слой_1_30_"
         display="inline"><path
           fill="#248bb8"
           stroke="#323232"
           stroke-miterlimit="10"
           d="M400.818,377.008c-73.417-36.907-172.63-59.528-281.764-59.528     l119.055-158.74L119.054-0.001c226.601,0,410.343,97.625,410.343,218.268v317.48     C529.794,473.045,480.188,416.693,400.818,377.008z"
           id="path377" /><path
           fill="#7fc2dc"
           stroke="#323232"
           stroke-miterlimit="10"
           d="M400.818,377.008c79.37,39.685,128.579,96.038,128.579,158.74     c0,120.642-183.742,218.268-410.343,218.268L-0.001,595.276l119.055-158.74C228.188,436.534,327.401,413.914,400.818,377.008z"
           id="path379" /></g><g
         id="Слой_1__x28_копия_x29__32_"
         display="inline"><path
           fill="#248bb8"
           stroke="#323232"
           stroke-miterlimit="10"
           d="M371.199,364.508C276.455,327.601,140.69,317.48-0.146,317.48     l153.639-158.74L-0.146-0.001c292.426,0,529.542,97.625,529.542,218.268v317.48C529.908,473.045,473.625,404.193,371.199,364.508     z"
           id="path382" /><path
           fill="#7fc2dc"
           stroke="#323232"
           stroke-miterlimit="10"
           d="M400.818,377.008c79.37,39.685,128.579,96.038,128.579,158.74     c0,120.642-183.742,218.268-410.343,218.268L-0.001,595.276l119.055-158.74C228.188,436.534,327.401,413.914,400.818,377.008z"
           id="path384" /></g><g
         id="Слой_1__x28_копия2_x29__27_"
         display="inline"><path
           fill="#248bb8"
           stroke="#323232"
           stroke-miterlimit="10"
           d="M371.199,364.508C276.455,327.601,140.69,305.48-0.146,305.48     l119.534-148.879L0.854,0.999c292.426,0,528.542,96.625,528.542,217.268v317.48C529.908,473.045,473.625,404.193,371.199,364.508     z"
           id="path387" /><path
           fill="#7fc2dc"
           stroke="#323232"
           stroke-miterlimit="10"
           d="M-281.828,377.163     c-79.071-40.278-127.857-96.997-127.388-159.697C-408.314,96.827-223.847,0.578,2.748,2.273L120.717,147.9L0.59,290.745     C-145.024,295.685-219.923,339.126-281.828,377.163z"
           id="path389" /></g></g><g
       id="Слой_1__x28_копия_x29__30_"
       display="none"><g
         id="Слой_1_29_"
         display="inline"><path
           fill="#248bb8"
           stroke="#323232"
           stroke-miterlimit="10"
           d="M400.818,377.008c-73.417-36.907-172.63-59.528-281.764-59.528     l119.055-158.74L119.054-0.001c226.601,0,410.343,97.625,410.343,218.268v317.48     C529.794,473.045,480.188,416.693,400.818,377.008z"
           id="path393" /><path
           fill="#7fc2dc"
           stroke="#323232"
           stroke-miterlimit="10"
           d="M400.818,377.008c79.37,39.685,128.579,96.038,128.579,158.74     c0,120.642-183.742,218.268-410.343,218.268L-0.001,595.276l119.055-158.74C228.188,436.534,327.401,413.914,400.818,377.008z"
           id="path395" /></g><g
         id="Слой_1__x28_копия_x29__31_"
         display="inline"><path
           fill="#248bb8"
           stroke="#323232"
           stroke-miterlimit="10"
           d="M371.199,364.508C276.455,327.601,140.69,317.48-0.146,317.48     l153.639-158.74L-0.146-0.001c292.426,0,529.542,97.625,529.542,218.268v317.48C529.908,473.045,473.625,404.193,371.199,364.508     z"
           id="path398" /><path
           fill="#7fc2dc"
           stroke="#323232"
           stroke-miterlimit="10"
           d="M400.818,377.008c79.37,39.685,128.579,96.038,128.579,158.74     c0,120.642-183.742,218.268-410.343,218.268L-0.001,595.276l119.055-158.74C228.188,436.534,327.401,413.914,400.818,377.008z"
           id="path400" /></g><g
         id="Слой_1__x28_копия2_x29__26_"
         display="inline"><path
           fill="#248bb8"
           stroke="#323232"
           stroke-miterlimit="10"
           d="M371.199,364.508C276.455,327.601,140.69,317.48-0.146,317.48     l127.345-157.972L-0.146-0.001c292.426,0,529.542,97.625,529.542,218.268v317.48     C529.908,473.045,473.625,404.193,371.199,364.508z"
           id="path403" /><path
           fill="#7fc2dc"
           stroke="#323232"
           stroke-miterlimit="10"
           d="M400.818,377.008c79.37,39.685,128.579,96.038,128.579,158.74     c0,120.642-183.742,218.268-410.343,218.268L-0.001,595.276l119.055-158.74C228.188,436.534,327.401,413.914,400.818,377.008z"
           id="path405" /></g></g><g
       id="Слой_1__x28_копия3_x29__2_"
       display="none"><g
         id="Слой_1_28_"
         display="inline"><path
           fill="#248bb8"
           stroke="#323232"
           stroke-miterlimit="10"
           d="M400.818,377.008c-73.417-36.907-172.63-59.528-281.764-59.528     l119.055-158.74L119.054-0.001c226.601,0,410.343,97.625,410.343,218.268v317.48     C529.794,473.045,480.188,416.693,400.818,377.008z"
           id="path409" /><path
           fill="#7fc2dc"
           stroke="#323232"
           stroke-miterlimit="10"
           d="M400.818,377.008c79.37,39.685,128.579,96.038,128.579,158.74     c0,120.642-183.742,218.268-410.343,218.268L-0.001,595.276l119.055-158.74C228.188,436.534,327.401,413.914,400.818,377.008z"
           id="path411" /></g><g
         id="Слой_1__x28_копия_x29__29_"
         display="inline"><path
           fill="#248bb8"
           stroke="#323232"
           stroke-miterlimit="10"
           d="M371.199,364.508C276.455,327.601,140.69,317.48-0.146,317.48     l153.639-158.74L-0.146-0.001c292.426,0,529.542,97.625,529.542,218.268v317.48C529.908,473.045,473.625,404.193,371.199,364.508     z"
           id="path414" /><path
           fill="#7fc2dc"
           stroke="#323232"
           stroke-miterlimit="10"
           d="M400.818,377.008c79.37,39.685,128.579,96.038,128.579,158.74     c0,120.642-183.742,218.268-410.343,218.268L-0.001,595.276l119.055-158.74C228.188,436.534,327.401,413.914,400.818,377.008z"
           id="path416" /></g><g
         id="Слой_1__x28_копия2_x29__25_"
         display="inline"><path
           fill="#248bb8"
           stroke="#323232"
           stroke-miterlimit="10"
           d="M371.199,364.508C276.455,327.601,140.69,317.48-0.146,317.48     l127.345-157.972L-0.146-0.001c292.426,0,529.542,97.625,529.542,218.268v317.48     C529.908,473.045,473.625,404.193,371.199,364.508z"
           id="path419" /><path
           fill="#7fc2dc"
           stroke="#323232"
           stroke-miterlimit="10"
           d="M400.818,377.008c79.37,39.685,128.579,96.038,128.579,158.74     c0,120.642-183.742,218.268-410.343,218.268L-0.001,614.276l119.055-141.74C233.199,464.508,359.199,425.508,400.818,377.008z"
           id="path421" /></g></g><g
       id="Слой_1__x28_копия4_x29__2_"
       display="none"><g
         id="Слой_1_27_"
         display="inline"><path
           fill="#248bb8"
           stroke="#323232"
           stroke-miterlimit="10"
           d="M400.818,377.008c-73.417-36.907-172.63-59.528-281.764-59.528     l119.055-158.74L119.054-0.001c226.601,0,410.343,97.625,410.343,218.268v317.48     C529.794,473.045,480.188,416.693,400.818,377.008z"
           id="path425" /><path
           fill="#7fc2dc"
           stroke="#323232"
           stroke-miterlimit="10"
           d="M400.818,377.008c79.37,39.685,128.579,96.038,128.579,158.74     c0,120.642-183.742,218.268-410.343,218.268L-0.001,595.276l119.055-158.74C228.188,436.534,327.401,413.914,400.818,377.008z"
           id="path427" /></g><g
         id="Слой_1__x28_копия_x29__28_"
         display="inline"><path
           fill="#248bb8"
           stroke="#323232"
           stroke-miterlimit="10"
           d="M371.199,364.508C276.455,327.601,140.69,317.48-0.146,317.48     l153.639-158.74L-0.146-0.001c292.426,0,529.542,97.625,529.542,218.268v317.48C529.908,473.045,473.625,404.193,371.199,364.508     z"
           id="path430" /><path
           fill="#7fc2dc"
           stroke="#323232"
           stroke-miterlimit="10"
           d="M400.818,377.008c79.37,39.685,128.579,96.038,128.579,158.74     c0,120.642-183.742,218.268-410.343,218.268L-0.001,595.276l119.055-158.74C228.188,436.534,327.401,413.914,400.818,377.008z"
           id="path432" /></g><g
         id="Слой_1__x28_копия2_x29__24_"
         display="inline"><path
           fill="#248bb8"
           stroke="#323232"
           stroke-miterlimit="10"
           d="M371.199,364.508C276.455,327.601,140.69,317.48-0.146,317.48     l127.345-157.972L-0.146-0.001c292.426,0,529.542,97.625,529.542,218.268v317.48     C529.908,473.045,473.625,404.193,371.199,364.508z"
           id="path435" /><path
           fill="#7fc2dc"
           d="M400.818,377.008c79.37,39.685,128.579,96.038,128.579,158.74c0,120.642-196.742,218.268-423.343,218.268     L-0.001,614.276l105.055-140.74C219.199,465.508,359.199,425.508,400.818,377.008z"
           id="path437" /></g></g><g
       id="Слой_1__x28_копия6_x29__2_"
       display="none"><g
         id="Слой_1_26_"
         display="inline"><path
           fill="#248bb8"
           stroke="#323232"
           stroke-miterlimit="10"
           d="M400.818,377.008c-73.417-36.907-172.63-59.528-281.764-59.528     l119.055-158.74L119.054-0.001c226.601,0,410.343,97.625,410.343,218.268v317.48     C529.794,473.045,480.188,416.693,400.818,377.008z"
           id="path441" /><path
           fill="#7fc2dc"
           stroke="#323232"
           stroke-miterlimit="10"
           d="M400.818,377.008c79.37,39.685,128.579,96.038,128.579,158.74     c0,120.642-183.742,218.268-410.343,218.268L-0.001,595.276l119.055-158.74C228.188,436.534,327.401,413.914,400.818,377.008z"
           id="path443" /></g><g
         id="Слой_1__x28_копия_x29__27_"
         display="inline"><path
           fill="#248bb8"
           stroke="#323232"
           stroke-miterlimit="10"
           d="M371.199,364.508C276.455,327.601,140.69,317.48-0.146,317.48     l153.639-158.74L-0.146-0.001c292.426,0,529.542,97.625,529.542,218.268v317.48C529.908,473.045,473.625,404.193,371.199,364.508     z"
           id="path446" /><path
           fill="#7fc2dc"
           stroke="#323232"
           stroke-miterlimit="10"
           d="M400.818,377.008c79.37,39.685,128.579,96.038,128.579,158.74     c0,120.642-183.742,218.268-410.343,218.268L-0.001,595.276l119.055-158.74C228.188,436.534,327.401,413.914,400.818,377.008z"
           id="path448" /></g><g
         id="Слой_1__x28_копия2_x29__23_"
         display="inline"><path
           fill="#248bb8"
           d="M371.199,364.508c-94.744-36.907-229.832-84.02-370.668-84.02L106.13,140.155L-0.146-0.001     c292.426,0,529.542,97.625,529.542,218.268v317.48C529.908,473.045,473.625,404.193,371.199,364.508z"
           id="path451" /><path
           fill="#7fc2dc"
           d="M400.818,377.008c79.37,39.685,128.579,96.038,128.579,158.74c0,120.642-196.742,218.268-423.343,218.268     L-0.001,614.276l105.055-140.74C219.199,465.508,359.199,425.508,400.818,377.008z"
           id="path453" /></g></g><g
       id="Слой_1__x28_копия7_x29__2_"
       display="none"><g
         id="Слой_1_25_"
         display="inline"><path
           fill="#248bb8"
           stroke="#323232"
           stroke-miterlimit="10"
           d="M400.818,377.008c-73.417-36.907-172.63-59.528-281.764-59.528     l119.055-158.74L119.054-0.001c226.601,0,410.343,97.625,410.343,218.268v317.48     C529.794,473.045,480.188,416.693,400.818,377.008z"
           id="path457" /><path
           fill="#7fc2dc"
           stroke="#323232"
           stroke-miterlimit="10"
           d="M400.818,377.008c79.37,39.685,128.579,96.038,128.579,158.74     c0,120.642-183.742,218.268-410.343,218.268L-0.001,595.276l119.055-158.74C228.188,436.534,327.401,413.914,400.818,377.008z"
           id="path459" /></g><g
         id="Слой_1__x28_копия_x29__26_"
         display="inline"><path
           fill="#248bb8"
           stroke="#323232"
           stroke-miterlimit="10"
           d="M371.199,364.508C276.455,327.601,140.69,317.48-0.146,317.48     l153.639-158.74L-0.146-0.001c292.426,0,529.542,97.625,529.542,218.268v317.48C529.908,473.045,473.625,404.193,371.199,364.508     z"
           id="path462" /><path
           fill="#7fc2dc"
           stroke="#323232"
           stroke-miterlimit="10"
           d="M400.818,377.008c79.37,39.685,128.579,96.038,128.579,158.74     c0,120.642-183.742,218.268-410.343,218.268L-0.001,595.276l119.055-158.74C228.188,436.534,327.401,413.914,400.818,377.008z"
           id="path464" /></g><g
         id="Слой_1__x28_копия2_x29__22_"
         display="inline"><path
           fill="#248bb8"
           d="M0.531,280.488L105.13,140.155L-0.146-0.001c292.426,0,529.542,97.625,529.542,218.268v317.48     C531.866,461.508,437.199,317.174,0.531,280.488z"
           id="path467" /><path
           fill="#7fc2dc"
           d="M400.818,377.008c79.37,39.685,128.579,96.038,128.579,158.74c0,120.642-196.742,218.268-423.343,218.268     L0.999,614.276l104.055-140.74C219.199,465.508,359.199,425.508,400.818,377.008z"
           id="path469" /></g></g><g
       id="Слой_1__x28_копия8_x29__2_"><g
         id="Слой_1_24_"
         display="none"><path
           display="inline"
           fill="#248bb8"
           stroke="#323232"
           stroke-miterlimit="10"
           d="M129.435,377.007     c73.417,36.907,172.63,59.528,281.764,59.528l-119.055,158.74l119.055,158.741c-226.601,0-410.343-97.625-410.343-218.268     v-317.48C0.459,280.97,50.065,337.322,129.435,377.007z"
           id="path473" /><path
           display="inline"
           fill="#7fc2dc"
           stroke="#323232"
           stroke-miterlimit="10"
           d="M129.435,377.007     C50.065,337.322,0.856,280.969,0.856,218.267C0.856,97.625,184.598-0.001,411.199-0.001l119.055,158.74l-119.055,158.74     C302.065,317.481,202.852,340.101,129.435,377.007z"
           id="path475" /></g><g
         id="Слой_1__x28_копия_x29__25_"
         display="none"><path
           display="inline"
           fill="#248bb8"
           stroke="#323232"
           stroke-miterlimit="10"
           d="M159.054,389.507     c94.744,36.907,230.509,47.028,371.345,47.028L376.76,595.275l153.639,158.741c-292.426,0-529.542-97.625-529.542-218.268     v-317.48C0.345,280.97,56.628,349.822,159.054,389.507z"
           id="path478" /><path
           display="inline"
           fill="#7fc2dc"
           stroke="#323232"
           stroke-miterlimit="10"
           d="M129.435,377.007     C50.065,337.322,0.856,280.969,0.856,218.267C0.856,97.625,184.598-0.001,411.199-0.001l119.055,158.74l-119.055,158.74     C302.065,317.481,202.852,340.101,129.435,377.007z"
           id="path480" /></g><g
         id="Слой_1__x28_копия2_x29__21_" /></g><g
       id="Слой_1__x28_копия5_x29__2_"
       display="none"><g
         id="Слой_1_12_"
         display="inline"><path
           fill="#248bb8"
           stroke="#323232"
           stroke-miterlimit="10"
           d="M400.818,377.008c-73.417-36.907-172.63-59.528-281.764-59.528     l119.055-158.74L119.054-0.001c226.601,0,410.343,97.625,410.343,218.268v317.48     C529.794,473.045,480.188,416.693,400.818,377.008z"
           id="path489" /><path
           fill="#7fc2dc"
           stroke="#323232"
           stroke-miterlimit="10"
           d="M400.818,377.008c79.37,39.685,128.579,96.038,128.579,158.74     c0,120.642-183.742,218.268-410.343,218.268L-0.001,595.276l119.055-158.74C228.188,436.534,327.401,413.914,400.818,377.008z"
           id="path491" /></g><g
         id="Слой_1__x28_копия_x29__24_"
         display="inline"><path
           fill="#248bb8"
           stroke="#323232"
           stroke-miterlimit="10"
           d="M371.199,364.508C276.455,327.601,140.69,317.48-0.146,317.48     l153.639-158.74L-0.146-0.001c292.426,0,529.542,97.625,529.542,218.268v317.48C529.908,473.045,473.625,404.193,371.199,364.508     z"
           id="path494" /><path
           fill="#7fc2dc"
           stroke="#323232"
           stroke-miterlimit="10"
           d="M400.818,377.008c79.37,39.685,128.579,96.038,128.579,158.74     c0,120.642-183.742,218.268-410.343,218.268L-0.001,595.276l119.055-158.74C228.188,436.534,327.401,413.914,400.818,377.008z"
           id="path496" /></g><g
         id="Слой_1__x28_копия2_x29__20_"
         display="inline"><path
           fill="#7fc2dc"
           d="M-295.604,375.87c-79.216-39.992-128.206-96.535-127.964-159.236     C-423.101,95.993-225.983-0.871,0.616,0.006L106.13,140.155L0.531,280.488C-113.644,288.074-253.798,327.532-295.604,375.87z"
           id="path499" /></g></g><g
       id="Слой_11_2_" /><g
       id="Слой_7_2_"
       display="none"><polygon
         display="inline"
         fill="#B5CDD3"
         stroke="#323232"
         stroke-miterlimit="10"
         points="-2134.167,473.185 -2239.479,613.6     -2134.167,754.015 8.215,754.015 -97.096,613.6 8.215,473.185   "
         id="polygon503" /></g><g
       id="Слой_7__x28_копия_x29__2_"
       display="none"><polygon
         display="inline"
         fill="#B5CDD3"
         stroke="#323232"
         stroke-miterlimit="10"
         points="-2052.167,473.185 -2157.479,613.6     -2052.167,754.015 90.215,754.015 -15.096,613.6 90.215,473.185   "
         id="polygon506" /></g><g
       id="Слой_10_2_"
       display="none"><image
         sodipodi:absref="/home/mogo/w/cb/carbook.pro/source/theme/images/funel/4096C24.jpg"
         xlink:href="4096C24.jpg"
         id="image509"
         transform="matrix(8.9949 0 0 8.9949 -1797.3147 -98.7108)"
         height="108"
         width="264"
         enable-background="new    "
         opacity="0.7"
         overflow="visible"
         display="inline" /></g></g><g
     inkscape:groupmode="layer"
     id="layer1"
     inkscape:label="Layer 1"><path
       style="fill:#248bb8"
       d="M 0.63584497,514.19611 C 1.1403169,413.80651 0.856,280.969 0.856,218.267 0.856,97.625 197.598,-10e-4 424.199,-10e-4 l 105.055,139.74 -104.055,140.74 C 311.054,288.507 42.254845,420.96641 0.63584497,514.19611 Z"
       id="path483"
       inkscape:connector-curvature="0"
       sodipodi:nodetypes="cscccc" /></g></svg>